<?xml version="1.0" standalone="no"?>
<!DOCTYPE svg PUBLIC "-//W3C//DTD SVG 20010904//EN"
 "http://www.w3.org/TR/2001/REC-SVG-20010904/DTD/svg10.dtd">
<svg version="1.0" xmlns="http://www.w3.org/2000/svg"
 width="320.000000pt" height="124.000000pt" viewBox="0 0 320.000000 124.000000"
 preserveAspectRatio="xMidYMid meet">

<g transform="translate(0.000000,124.000000) scale(0.100000,-0.100000)"
fill="#000000" stroke="none">
<path d="M12 1228 c-17 -17 -17 -1199 0 -1216 17 -17 3159 -17 3176 0 17 17
17 1199 0 1216 -17 17 -3159 17 -3176 0z m3163 -608 l0 -595 -1575 0 -1575 0
-3 585 c-1 322 0 591 3 598 3 10 324 12 1577 10 l1573 -3 0 -595z"/>
<path d="M1200 934 c-6 -14 -10 -34 -10 -45 0 -17 -8 -19 -99 -19 -56 0 -103
-4 -106 -10 -3 -5 -10 -81 -15 -167 -8 -146 -28 -279 -51 -340 -17 -46 30 -86
59 -50 14 17 62 212 62 252 0 34 13 59 27 54 5 -2 38 -34 72 -71 l62 -66 -33
-25 c-18 -14 -51 -34 -74 -45 -22 -11 -46 -27 -53 -36 -18 -22 -10 -50 16 -54
27 -4 113 38 167 80 l38 31 37 -22 c81 -49 166 -85 205 -85 38 -1 41 1 44 27
3 23 -1 30 -20 35 -34 9 -174 80 -186 95 -8 9 -2 24 25 57 39 50 73 112 73
133 0 8 8 17 18 19 26 7 65 93 66 142 l1 41 -127 3 -128 3 0 32 c0 57 -52 80
-70 31z m-10 -194 l0 -50 -70 0 -70 0 0 50 0 50 70 0 70 0 0 -50z m230 13
c-10 -20 -17 -40 -14 -45 3 -4 -19 -8 -50 -8 -30 0 -61 -3 -70 -6 -13 -5 -16
2 -16 45 l0 51 85 0 85 0 -20 -37z m-109 -171 c-40 -57 -46 -58 -93 -13 l-43
40 78 1 78 0 -20 -28z"/>
<path d="M2492 948 c-6 -6 -12 -33 -12 -58 0 -45 -1 -46 -33 -46 -49 0 -67
-10 -67 -39 0 -27 10 -35 56 -38 37 -4 35 -13 -21 -136 -33 -72 -41 -99 -34
-113 16 -30 48 -22 72 20 l22 37 5 -125 c3 -69 9 -131 13 -137 13 -20 55 -15
67 6 6 11 10 88 10 177 0 135 2 155 14 144 21 -16 60 -9 64 13 2 10 -8 36 -22
57 -30 46 -31 50 -11 50 8 0 24 9 35 20 16 16 18 25 10 40 -8 15 -21 20 -55
20 l-44 0 -3 58 c-3 52 -5 57 -28 60 -14 2 -31 -3 -38 -10z"/>
<path d="M2878 953 c-29 -7 -30 -34 -2 -76 28 -43 23 -61 -17 -55 -20 2 -25
12 -34 55 -13 67 -26 80 -61 64 -27 -12 -28 -22 -8 -107 4 -17 -1 -22 -33 -30
-33 -8 -38 -13 -38 -39 0 -28 2 -30 45 -33 24 -2 48 -9 52 -15 15 -23 8 -37
-19 -37 -16 0 -45 -5 -65 -11 -30 -8 -38 -15 -38 -34 0 -33 16 -40 87 -37 l62
3 10 -38 c26 -99 33 -84 -82 -180 -26 -22 -28 -48 -3 -65 20 -14 34 -8 84 31
l50 40 17 -40 c32 -71 62 -75 103 -15 32 47 27 81 -13 81 -49 0 -48 25 6 82
51 54 57 71 37 91 -19 19 -40 14 -75 -20 -18 -17 -35 -30 -37 -27 -2 2 -7 21
-11 42 l-7 37 50 0 c75 0 104 14 100 48 l-3 27 -80 -1 c-80 -1 -95 5 -95 37 0
13 14 17 66 22 37 3 70 10 74 17 11 18 -1 52 -20 57 -12 3 -16 12 -12 28 2 15
-5 36 -22 58 -29 38 -42 45 -68 40z"/>
<path d="M568 942 c-22 -9 -68 -71 -68 -92 0 -9 5 -21 12 -28 9 -9 8 -12 -8
-12 -39 0 -44 -18 -45 -159 0 -75 -4 -158 -9 -186 -5 -32 -8 35 -9 191 -1 183
-4 245 -14 259 -12 16 -25 17 -114 13 -55 -3 -105 -8 -111 -12 -9 -5 -12 -64
-12 -199 0 -106 -5 -221 -11 -257 -5 -36 -12 -81 -16 -102 -4 -30 -2 -38 17
-48 18 -10 25 -9 37 2 19 20 41 106 49 199 l7 79 43 0 44 0 0 -89 c0 -80 -2
-89 -20 -94 -33 -9 -26 -54 13 -77 17 -11 40 -20 50 -20 10 0 25 -6 33 -14 43
-43 76 23 98 195 l13 104 2 -90 c1 -104 18 -147 69 -182 40 -26 110 -39 149
-26 26 9 28 14 31 65 2 41 -1 60 -14 72 -14 15 -19 15 -38 3 -11 -8 -22 -27
-24 -42 -3 -24 -7 -26 -30 -20 -40 9 -62 41 -62 90 0 23 -3 70 -6 104 l-7 61
52 0 c57 0 63 -10 26 -42 -41 -36 -27 -85 30 -102 42 -12 60 22 71 134 5 57 4
74 -7 81 -22 14 -213 11 -227 -3 -9 -9 -12 -6 -12 15 l0 27 113 0 c116 0 137
6 137 42 0 21 -29 38 -66 38 -23 0 -25 3 -20 23 17 57 18 87 5 91 -28 9 -134
14 -151 8z m62 -83 c0 -25 -22 -49 -46 -49 l-25 0 21 30 c21 29 50 41 50 19z
m-270 -34 c0 -23 -4 -25 -45 -25 -41 0 -45 2 -45 25 0 23 4 25 45 25 41 0 45
-2 45 -25z m0 -130 c0 -23 -4 -25 -45 -25 -41 0 -45 2 -45 25 0 23 4 25 45 25
41 0 45 -2 45 -25z"/>
<path d="M1936 925 c-12 -13 -14 -49 -9 -254 l6 -239 -29 -4 c-25 -3 -29 -7
-29 -33 0 -26 7 -34 47 -55 38 -20 51 -23 65 -14 17 10 18 35 17 297 -1 217
-4 290 -14 302 -16 19 -34 19 -54 0z"/>
<path d="M2096 754 c-22 -21 -21 -24 23 -90 69 -102 94 -128 119 -120 40 13
30 48 -45 150 -60 81 -70 88 -97 60z"/>
<path d="M1762 733 c-30 -42 -73 -154 -67 -174 3 -9 13 -20 21 -23 18 -7 54
10 54 25 0 5 16 43 36 85 40 85 41 108 2 112 -19 2 -31 -4 -46 -25z"/>
</g>
</svg>
