<svg xmlns="http://www.w3.org/2000/svg" width="1570.3200000000002" height="316"><path d="M57.24 43.04L57.24 59.48L19.80 59.48L19.80 122.24L57.24 122.24L57.24 145.64L68.64 145.64L68.64 122.24L124.20 122.24L124.20 59.48L68.64 59.48L68.64 43.04ZM31.20 70.88L57.24 70.88L57.24 100.04L31.20 100.04ZM94.56 100.04L68.64 100.04L68.64 70.88L94.56 70.88ZM183.24 42.44L183.24 52.88L140.40 52.88L140.40 64.28L150 64.28L150 95.12L176.16 112.88L139.92 145.04L180.48 145.04L199.20 128.60L223.44 145.04L244.08 145.04L207.96 121.04L235.20 97.16L235.20 64.28L243.60 64.28L243.60 52.88L194.64 52.88L194.64 42.44ZM161.40 64.28L205.56 64.28L205.56 86.84L184.56 105.44L161.40 90.08ZM336.48 122.84L329.88 122.84L329.88 145.04L366.12 145.04L366.12 45.80L258 45.80L258 145.04L269.40 145.04L269.40 57.20L336.48 57.20ZM302.16 96.56L298.44 95.12L298.44 62.48L277.92 62.48L277.92 86.96L272.04 84.56L272.04 96.56L277.68 98.84L272.88 137.72L293.52 137.72L297.24 106.64L302.16 108.56ZM333.72 96.56L330 95.12L330 62.48L309.48 62.48L309.48 86.84L303.72 84.56L303.72 96.56L309.24 98.84L304.44 137.72L324.96 137.72L328.80 106.64L333.72 108.56ZM485.28 97.76L458.52 97.76L477.72 84.68L477.72 73.28L386.88 73.28L386.88 84.68L442.68 84.68L423.48 97.76L378.60 97.76L378.60 109.16L420.48 109.16L420.48 122.72L400.92 122.72L400.92 145.04L449.76 145.04L449.76 109.16L485.28 109.16ZM421.92 42.44L421.92 50.48L380.52 50.48L380.52 68.96L391.92 68.96L391.92 61.88L453.72 61.88L453.72 68.96L483.36 68.96L483.36 50.48L433.32 50.48L433.32 42.44ZM552.12 43.76L552.12 80L526.20 80L526.20 91.40L552.12 91.40L552.12 144.92L581.76 144.92L581.76 91.40L607.80 91.40L607.80 80L581.76 80L581.76 43.76ZM496.20 73.40L496.20 84.80L507.84 84.80L507.84 145.04L531.60 145.04L531.60 122.72L519.24 122.72L519.24 73.40ZM508.44 43.40L508.44 61.52L519.84 61.52L519.84 43.40ZM679.68 67.64L658.44 70.76L658.44 43.88L628.80 43.88L628.80 74.96L615.96 76.76L615.96 88.16L631.20 86L638.64 108.80L615.96 114.92L615.96 126.92L642.12 119.84L650.40 145.04L680.04 145.04L669.48 112.40L679.68 109.64L679.68 97.76L665.88 101.48L659.52 81.92L679.68 79.04ZM727.08 44.12L727.08 144.92L684.36 144.92L684.36 122.72L700.08 122.72L700.08 44.12ZM695.76 49.04L695.76 115.64L684.36 115.64L684.36 49.04ZM665.04 45.44L665.04 63.44L676.44 63.44L676.44 45.44Z"/><path d="M100.44 195.40L14.88 195.40L14.88 206.80L42.84 206.80L42.84 280.12L72.48 280.12L72.48 206.80L100.44 206.80ZM121.44 218.32L121.44 195.76L110.04 195.76L110.04 280.12L121.44 280.12L121.44 229.72L160.44 229.72L160.44 280.12L190.08 280.12L190.08 218.32ZM199.44 280.72L281.16 280.72L281.16 259.60L210.96 259.60L210.96 252.28L279.60 252.28L279.60 218.92L199.44 218.92ZM210.96 240.88L210.96 230.32L249.96 230.32L249.96 240.88ZM324.36 195.76L324.36 280.12L335.76 280.12L335.76 253.60L409.92 253.60L409.92 195.76ZM335.76 207.16L380.28 207.16L380.28 231.40L335.76 231.40ZM489.12 218.92L448.44 230.68L448.44 218.92L418.80 218.92L418.80 280.60L448.44 280.60L448.44 242.44L489.12 230.56ZM548.88 258.40L508.68 258.40L508.68 230.32L548.88 230.32ZM578.64 280.60L578.64 218.92L497.28 218.92L497.28 280.60ZM607.08 218.80L607.08 279.88L588.36 279.88L588.36 302.20L636.84 302.20L636.84 218.80ZM607.08 196.24L607.08 213.76L636.84 213.76L636.84 196.24ZM650.16 280.72L731.88 280.72L731.88 259.60L661.68 259.60L661.68 252.28L730.32 252.28L730.32 218.92L650.16 218.92ZM661.68 240.88L661.68 230.32L700.68 230.32L700.68 240.88ZM817.32 218.92L744.96 218.92L744.96 280.72L817.32 280.72L817.32 258.40L756.36 258.40L756.36 230.32L817.32 230.32ZM844.68 197.92L844.68 220.60L824.04 220.60L824.04 232L844.68 232L844.68 280.12L903.36 280.12L903.36 257.92L856.08 257.92L856.08 232L907.44 232L907.44 220.60L856.08 220.60L856.08 197.92ZM1023.12 226.24L957.72 226.24L957.72 207.16L1024.68 207.16L1024.68 195.76L946.32 195.76L946.32 280.12L957.72 280.12L957.72 248.44L1023.12 248.44ZM1083.84 258.40L1043.64 258.40L1043.64 230.32L1083.84 230.32ZM1113.60 280.60L1113.60 218.92L1032.24 218.92L1032.24 280.60ZM1197.24 218.92L1156.56 230.68L1156.56 218.92L1126.92 218.92L1126.92 280.60L1156.56 280.60L1156.56 242.44L1197.24 230.56ZM1283.40 280.12L1290.96 226.72L1298.28 280.12L1333.44 280.12L1347.72 195.76L1317.96 195.76L1307.28 256.96L1299.36 198.88L1264.56 198.88L1256.52 256.96L1246.08 195.76L1233.96 195.76L1248.36 280.12ZM1359.48 280.72L1441.20 280.72L1441.20 259.60L1371 259.60L1371 252.28L1439.64 252.28L1439.64 218.92L1359.48 218.92ZM1371 240.88L1371 230.32L1410 230.32L1410 240.88ZM1454.28 195.76L1454.28 280.12L1534.32 280.12L1534.32 218.32L1465.68 218.32L1465.68 195.76ZM1504.68 229.72L1504.68 257.80L1465.68 257.80L1465.68 229.72Z"/></svg>