<svg xmlns="http://www.w3.org/2000/svg" width="855.6" height="316"><path d="M41.76 56C39 56 37.20 57.80 36.24 61.52C36.24 62.96 36.36 65.36 36.48 68.60L36.48 69.08C29.16 69.92 24.96 70.64 23.88 71.24C23.88 70.76 22.80 70.28 20.76 69.92C15.96 69.92 13.56 72.44 13.56 77.60L14.64 97.28C14.64 103.76 17.04 107.60 21.84 108.80C29.16 108.44 34.44 108.32 37.92 108.32L38.28 108.32C37.92 119.96 40.44 125.72 45.84 125.72C50.52 124.64 52.92 122.48 52.92 119C52.56 113.60 52.44 109.88 52.44 107.84L52.44 107.60C64.32 106.88 70.32 105.68 70.44 104.12C73.32 104.12 74.76 98.36 74.76 86.84L74.76 73.28C73.80 68.48 70.92 66.08 66.24 66.08C57.96 67.40 52.44 67.88 49.44 67.52L49.44 66.56C48.84 59.48 46.80 56 43.08 56ZM50.76 81.32C51.84 81.92 55.20 81.80 60.72 80.96L60.72 90.92C60.72 92.36 57.72 93.08 51.72 93.08L51.36 93.08C51.48 89 51.36 85.04 50.76 81.32ZM36.96 82.64C37.32 82.64 37.68 86.60 37.80 94.40L30.24 94.52L27.96 94.88C27.96 93.80 27.72 90.20 27.12 83.96ZM101.28 68.48C98.76 68.36 97.08 69.92 96.24 73.16L96.24 73.76C96.12 75.44 96.72 77 98.04 78.56L90 79.16C82.08 79.04 78 80.96 77.76 84.80C77.64 87.68 79.08 89.96 82.20 91.52L105.96 90.56C105.96 91.40 104.88 94.16 102.72 99.08L95.28 98.48C91.20 98.96 89.16 100.52 89.04 103.28L88.92 105.44C89.28 108.68 92.52 110.72 98.40 111.68C94.68 118.88 92.88 122.84 92.76 123.44C92.64 126.80 94.20 128.84 97.68 129.56L100.32 129.68C103.80 129.80 107.28 125.12 110.64 115.40L121.80 118.40C126 117.68 128.16 115.76 128.28 112.52C128.40 110.48 128.28 109.40 127.80 109.40C127.92 106.76 123.48 104.60 114.48 102.92C116.52 97.52 118.20 93.08 119.28 89.48L119.28 89.12C127.20 89.48 131.28 87.44 131.40 82.88C130.92 78.92 129.36 76.88 126.60 76.76C124.80 76.64 119.28 76.88 109.92 77.48C107.88 71.60 105.60 68.60 103.08 68.48L101.28 68.48ZM203.64 67.88C196.80 67.88 190.20 68 183.60 68.12C153.72 70.40 138.84 72.32 138.84 74.12C136.80 74.12 135.96 83.84 136.20 103.40C136.20 105.68 136.44 110 136.92 116.24C136.92 124.16 138.72 128.12 142.44 128.12L144 128.12C147.72 127.04 149.64 125.36 149.64 122.84C148.80 109.64 148.32 102.92 148.08 102.68L148.08 102.20C150.60 103.28 151.92 103.76 152.28 103.76L152.28 104.12C150.96 108.08 150.36 110.36 150.36 110.96C151.20 114.92 153 116.96 155.88 116.96C159.60 116.96 162.12 113.96 163.44 107.84L166.08 108.20L166.80 108.20C169.56 108.20 171.24 106.52 171.96 103.04L171.96 102.68C171.96 99.92 170.64 98.12 168 97.04C168 95.72 168.24 94.16 168.72 92.60C168.72 89.36 166.92 87.44 163.20 87.08L162.72 87.08C160.32 87.08 158.40 89.36 156.84 93.80C154.80 92.96 153.36 92.60 152.28 92.60C150.72 92.60 149.28 92.96 148.08 93.80L148.08 84.32L147.72 83.60C170.40 81.32 186.84 80.24 197.04 80.24L197.04 80.96C197.04 84.68 197.16 89.84 197.40 96.32L197.40 96.56C195.36 95.36 193.56 94.64 191.88 94.52C192.84 92.48 193.32 90.80 193.32 89.48C192.84 85.76 191.16 83.96 188.16 83.96C185.28 83.96 182.88 86.48 181.08 91.40C178.56 90.56 176.88 90.20 176.28 90.20C173.76 90.20 171.96 92 171 95.48C171 98.60 173.04 100.76 177.24 101.84C175.80 106.76 175.08 109.52 175.08 110.12L175.08 110.60C175.08 113.84 177.12 115.76 181.08 116.48C184.56 116.48 187.08 112.88 188.52 105.80C188.88 105.80 190.20 106.16 192.60 106.88C195.12 106.88 196.68 106.16 197.40 104.60L198.24 104.96C198.24 107.96 198.60 112.40 199.44 118.16C199.44 121.64 201.24 124.16 204.96 125.48C210 124.88 212.52 122.84 212.52 119.36C211.20 110.48 210.24 96.08 209.64 76.16C209.04 70.64 207.12 67.88 203.64 67.88ZM251.64 42.92C248.88 42.92 247.08 44.72 246.12 48.44C246.12 52.88 249.36 56 255.96 57.80C259.92 57.80 261.84 55.76 261.84 51.80L261.84 51.44C261.84 47.36 258.60 44.48 252.12 42.92ZM291.48 63.32C244.92 64.16 221.64 65.84 221.64 68.36C218.16 68.36 216.48 74 216.48 85.28C216.48 89.36 218.64 91.88 222.84 92.96C226.68 92.96 228.96 90.68 229.68 86.12L229.68 85.28C229.68 83.84 229.56 81.68 229.20 78.92C257.64 77.72 277.20 77.12 288.12 77.12C289.56 81.68 291.72 83.96 294.48 83.96L296.16 83.96C300.12 83.96 302.64 80 303.84 72.08C303.84 71.24 303.72 70.52 303.36 69.92C302.28 65.48 299.40 63.32 294.84 63.32ZM268.68 84.68C260.64 84.68 253.08 85.40 246.12 86.84C241.44 87.56 239.04 89.84 239.04 93.56L239.04 94.04C239.04 96.56 240.60 98.36 243.72 99.56C251.40 98.72 256.56 98.24 259.32 98.24L263.04 98.24C262.20 100.04 260.04 102.56 256.80 105.92C255.96 109.28 255.24 110.96 254.64 110.96C246.72 111.68 242.76 113.96 242.76 117.68C243.60 122.24 245.52 124.52 248.76 124.52C251.52 124.16 253.68 124.04 255.12 124.04L255.48 124.04L255.48 132.44C255.48 136.52 257.64 139.04 261.84 140.12C266.16 140.12 268.56 137.72 269.04 132.92L269.04 122.84L275.40 122.84C278.28 122.84 280.20 120.80 281.28 116.84L281.28 116C281.28 111.44 278.28 109.16 272.40 109.16C278.88 101.60 282.12 96.20 282.12 93.20L282.12 92.72C282.12 88.04 278.88 85.28 272.40 84.68ZM326.88 57.92C323.16 57.92 321 60.08 320.52 64.28C321.24 69.56 323.64 72.20 327.72 72.20C331.68 72.20 333.72 70.28 333.72 66.32L333.72 65.60C332.28 60.44 330 57.92 326.88 57.92ZM359.40 65.60C356.40 65.60 354.60 67.64 354 71.84L354 75.20L353.52 76.16C351.72 76.16 349.44 76.04 346.44 75.68C344.04 75.68 342.24 77.48 340.92 81.20C340.92 86.36 345.24 88.88 354 88.88L354 96.32C354.36 102.68 356.52 105.80 360.36 105.80C364.44 105.80 366.96 103.64 367.92 99.44L367.08 89.24L372.12 89.60L373.08 89.60C378.72 89.24 381.60 86.96 381.60 82.88C381.60 79.16 379.32 77 374.76 76.16L366.24 76.16L366.24 71.84C366.24 67.88 364.08 65.84 359.88 65.60ZM312 79.04C308.28 80.24 306.48 82.04 306.48 84.56C306.48 88.88 308.88 91.28 313.80 91.76L320.16 91.76C319.80 95.48 319.68 98.36 319.68 100.28L319.68 104.84C320.52 111.32 323.52 114.56 328.68 114.56C337.32 114.56 341.64 112.16 341.64 107.36C341.64 103.52 338.88 101.24 333.24 100.64L333.24 99.44C333.24 95.84 333.36 91.88 333.72 87.56C333.72 83 330.84 80.12 325.20 79.04L324.36 79.04C321.60 79.04 318.36 79.16 314.64 79.40ZM423.48 53.72C418.92 54.56 416.64 56.48 416.64 59.60C416.64 63.32 419.64 65.96 425.64 67.28C430.08 66.92 432.24 65 432.24 61.76L432.24 60.92C432.24 57.20 429.36 54.80 423.48 53.72ZM404.76 55.40C400.32 56.12 398.04 58.28 398.04 61.76C399.12 65 400.32 69.32 401.40 74.96C390.12 74.96 384.48 77.24 384.48 81.68L384.48 82.88C384.48 85.64 386.28 87.56 390 88.40C392.16 88.40 396.84 88.16 403.92 87.68C404.40 87.68 405.84 92.12 408.12 101.12C407.64 101.12 407.40 101.24 407.40 101.60C397.44 104.24 392.52 107.36 392.52 110.96C393.12 115.16 394.92 117.20 398.04 117.20L398.40 117.20C400.32 117.20 404.88 115.88 411.96 113.36C412.56 115.64 412.92 116.84 413.28 116.84C413.88 123.92 416.40 127.40 420.84 127.40L421.32 127.40C424.92 127.40 427.20 125.12 428.04 120.68C426.60 114.80 425.52 111.20 424.68 109.64L424.68 109.16C430.56 107.60 433.56 104.84 433.56 101.12C432.24 96.56 430.20 94.28 427.20 94.28C425.88 94.28 423.60 94.88 420.36 96.08C420.36 94.88 419.52 91.76 417.96 86.84C418.56 86.84 418.80 86.72 418.80 86.36C429.48 86.36 434.88 83.48 434.88 77.84C434.88 75.32 433.08 73.28 429.36 71.48C427.56 71.48 422.52 72.08 414.48 73.16C411.96 61.28 408.72 55.40 404.76 55.40ZM475.44 55.88C471.24 56.48 469.08 58.40 469.08 61.40L469.08 65.96C469.08 80.24 469.68 91.88 470.88 100.64C471.96 105.56 474 107.96 477.24 107.96C482.28 107.12 484.80 104.84 484.80 101.12C483.12 86 482.28 76.52 482.28 72.80C482.28 61.52 480 55.88 475.44 55.88ZM456.84 67.76C452.64 67.76 450.48 70.04 450.48 74.48L450.48 87.20C450.48 90.56 452.64 92.60 456.84 93.20C460.80 93.20 463.08 90.68 463.68 85.52C463.68 83.48 463.56 80.36 463.20 76.16C463.20 70.52 461.04 67.76 456.84 67.76Z"/><path d="M55.08 203.56C49.20 204.40 43.68 205 38.52 205.36C35.52 205.36 29.04 205 19.08 204.40C15.36 205.72 13.56 207.64 13.56 209.92L13.56 211.24C13.56 215.80 19.68 218.08 31.80 218.08L31.80 251.20C31.80 261.16 34.20 266.08 39 266.08C43.44 265.12 45.72 262.96 45.72 259.72C44.88 237.28 44.52 223.72 44.52 218.92L44.52 218.44L46.92 218.44C56.88 218.44 61.80 215.92 61.80 210.76C61.80 207.04 59.52 204.64 55.08 203.56ZM72 204.40C69.60 204.40 67.92 222.76 66.96 259.36C66.96 262.96 69.12 265 73.32 265.36L74.16 265.36C77.76 265.36 79.92 261.64 80.52 254.32C80.88 250.84 81.12 247.24 81.24 243.40C82.92 238.72 86.52 236.68 92.16 237.04L92.64 237.04C92.88 239.80 93 241.96 93 243.40L93 257.68C93 262.72 95.16 265.24 99.36 265.24L100.32 265.24C103.08 265.24 104.76 263.32 105.60 259.60L105.72 239.20C105.72 237.88 105.60 236.44 105.36 235C102.96 227.92 99.12 224.32 93.96 224.32L91.80 224.32C87.12 224.32 83.52 224.68 80.88 225.52C80.88 216.88 81 211.48 81.36 209.20C81.36 206.08 79.44 204.28 75.48 203.68L75 203.68ZM131.52 220.84C127.44 220.96 124.80 221.32 123.72 221.92C114.48 225.88 109.80 233.08 109.80 243.52L109.80 244.48C109.80 246.52 109.92 247.72 110.28 248.08C112.80 259.84 119.52 265.72 130.20 265.72C140.76 265.72 146.52 263.20 147.36 258.16C147.36 255.64 146.16 253.72 143.64 252.52L130.20 254.80C127.32 254.80 125.16 253 123.84 249.52L128.40 249.28C131.64 249.28 135.36 248.80 139.56 247.84C144.84 246.64 147.48 242.44 147.48 235.24C146.52 226.24 141.24 221.44 131.52 220.84ZM123.48 238.24C124.08 235.24 125.88 232.72 129.12 230.92L131.52 230.68C134.40 231.64 136.32 233.80 137.16 237.04C131.52 238.24 126.96 238.84 123.48 238.84ZM206.88 202.24C201.84 202.24 197.52 203.20 193.80 205.24C189.36 207.04 186.72 209.32 185.76 212.08C185.76 217.84 185.40 233.56 184.56 259.12C184.56 262.84 186.96 265.24 191.76 266.32C195.48 266.32 197.64 263.92 198.48 259.12L198.48 250.96L198.96 250.12L204 250.60L205.68 250.60C210.24 250.60 214.32 249.76 217.92 248.08C227.52 241.72 232.32 233.44 232.32 223.12C232.08 220 231.48 217.12 230.64 214.60C226.56 206.32 218.64 202.24 206.88 202.24ZM198.48 216.76C201.24 215.92 203.40 215.44 204.84 215.44C213.84 215.44 218.40 217.96 218.40 223.12C218.40 223.84 218.04 225.40 217.44 227.68C215.76 233.68 212.16 236.68 206.52 236.68L205.32 236.68C200.76 236.68 198.48 236.20 198.48 235.36ZM244.08 219.04C240.72 219.04 238.44 220.96 237.24 224.68L237.24 256.96C237.24 262.60 239.04 265.48 242.76 265.48L244.32 265.48C246.48 265.48 248.28 263.56 249.84 259.84C249.24 246.76 253.08 238.36 261.48 234.64C268.68 233.08 272.28 230.44 272.28 226.72C272.28 223.72 269.88 221.68 265.20 220.60C259.32 221.08 254.52 223.12 251.04 226.60L250.68 226.60C249.36 221.56 247.44 219.04 244.92 219.04L244.08 219.04ZM293.40 220.12C283.20 220.12 277.08 228.40 275.16 245.08C275.16 246.40 275.28 248.08 275.64 250.12C277.92 260.32 283.56 265.36 292.56 265.36C296.04 265.36 299.40 264.52 302.76 262.84C309.84 257.80 313.44 250.48 313.44 240.76C313.44 235.36 311.64 230.20 307.92 225.52C303.48 221.80 298.68 220 293.40 220.12ZM288.36 244.72C288.36 238.36 290.16 234.52 293.88 233.20L295.32 233.20C299.04 234.28 300.84 236.80 300.84 240.76L300.84 241.36C300.84 247.96 298.80 251.32 294.60 251.32L292.80 251.32C289.80 251.32 288.36 249.16 288.36 244.72ZM339.48 203.56C334.80 203.56 332.04 205.36 331.44 208.96C331.92 213.52 333.96 215.80 337.44 215.80L338.64 215.80C341.40 215.80 343.44 213.64 344.64 209.44C343.80 205.48 342 203.56 339.48 203.56ZM338.28 224.08C336.60 224.08 334.92 225.52 333.24 228.28C331.80 251.20 330.60 265.12 329.76 269.80C326.52 267.28 324.24 265.96 322.92 265.96C318.72 266.56 316.56 268.48 316.56 271.48C316.56 272.32 316.68 273.40 317.04 274.48C320.16 280.12 324.72 282.88 330.60 282.88C334.80 282.88 337.80 281.32 339.84 278.32C342.36 278.32 344.04 262.24 344.64 229.96C344.64 226.96 342.48 225.04 338.28 224.08ZM371.76 220.84C367.68 220.96 365.04 221.32 363.96 221.92C354.72 225.88 350.04 233.08 350.04 243.52L350.04 244.48C350.04 246.52 350.16 247.72 350.52 248.08C353.04 259.84 359.76 265.72 370.44 265.72C381 265.72 386.76 263.20 387.60 258.16C387.60 255.64 386.40 253.72 383.88 252.52L370.44 254.80C367.56 254.80 365.40 253 364.08 249.52L368.64 249.28C371.88 249.28 375.60 248.80 379.80 247.84C385.08 246.64 387.72 242.44 387.72 235.24C386.76 226.24 381.48 221.44 371.76 220.84ZM363.72 238.24C364.32 235.24 366.12 232.72 369.36 230.92L371.76 230.68C374.64 231.64 376.56 233.80 377.40 237.04C371.76 238.24 367.20 238.84 363.72 238.84ZM414.00 222.52C412.68 222.52 411.00 222.76 408.96 223.36C398.28 228.28 392.88 235.96 392.88 246.16L393.72 251.20C396.72 261.04 402.00 265.96 409.32 265.96L411.48 265.96C421.32 263.92 426.24 260.56 426.24 255.88C425.88 251.32 424.08 249.04 420.84 249.04C419.04 249.04 415.56 250.36 410.28 253C407.76 251.56 406.44 249.16 406.44 245.80C407.76 238.48 410.52 234.76 414.48 234.76L415.68 234.76C417.60 236.44 419.16 237.28 420.36 237.28C424.56 237.28 426.72 235.24 426.72 231.28C425.64 225.40 421.92 222.52 415.32 222.52L414.00 222.52ZM448.32 210.04C445.08 210.04 443.04 216.16 442.44 228.40L438.96 228.40C433.20 228.40 430.32 230.20 430.32 233.92C430.68 237.88 432.60 239.80 435.84 239.80L442.08 239.80L441.96 241.60L441.96 243.64C441.60 258.40 444.72 265.72 451.20 265.72L452.16 265.72C461.40 264.88 466.08 262.12 466.08 257.68C466.08 256.12 465.12 254.32 463.20 252.52C457.80 252.88 455.16 252.88 455.16 252.52L455.16 240.28L459.36 240.28C465.36 240.28 468.36 238.24 468.36 234.28L468.36 233.44C468.36 230.44 466.08 228.52 461.52 227.56C459.12 227.80 457.20 227.92 455.76 227.92L455.16 227.92L455.76 218.08L455.76 215.08C455.76 212.44 453.84 210.76 450.12 210.04ZM543.60 203.08C530.04 204.16 520.80 204.64 516.12 204.64C508.20 204.64 504.24 206.56 504.24 210.52C504.24 213.28 505.32 215.20 507.60 216.04C507.60 225.40 507.48 234.28 507.24 242.56L507.24 244.72C507.24 259 509.76 266.08 514.80 266.08L515.76 266.08C518.52 266.08 520.68 263.92 522.12 259.72C521.52 251.20 521.16 246.04 521.16 244.36C521.16 244 522.12 243.64 524.16 243.52C538.20 243.52 545.28 241.12 545.28 236.20C544.68 232 542.88 229.84 539.88 229.84C537.60 229.84 531.24 230.32 520.80 231.16L520.32 231.16L520.32 216.88L525.84 216.88C531 216.88 535.92 216.76 540.72 216.52C545.16 216.52 548.16 214.48 549.60 210.52C548.88 205.60 546.84 203.08 543.60 203.08ZM571.68 220.12C561.48 220.12 555.36 228.40 553.44 245.08C553.44 246.40 553.56 248.08 553.92 250.12C556.20 260.32 561.84 265.36 570.84 265.36C574.32 265.36 577.68 264.52 581.04 262.84C588.12 257.80 591.72 250.48 591.72 240.76C591.72 235.36 589.92 230.20 586.20 225.52C581.76 221.80 576.96 220 571.68 220.12ZM566.64 244.72C566.64 238.36 568.44 234.52 572.16 233.20L573.60 233.20C577.32 234.28 579.12 236.80 579.12 240.76L579.12 241.36C579.12 247.96 577.08 251.32 572.88 251.32L571.08 251.32C568.08 251.32 566.64 249.16 566.64 244.72ZM604.56 219.04C601.20 219.04 598.92 220.96 597.72 224.68L597.72 256.96C597.72 262.60 599.52 265.48 603.24 265.48L604.80 265.48C606.96 265.48 608.76 263.56 610.32 259.84C609.72 246.76 613.56 238.36 621.96 234.64C629.16 233.08 632.76 230.44 632.76 226.72C632.76 223.72 630.36 221.68 625.68 220.60C619.80 221.08 615 223.12 611.52 226.60L611.16 226.60C609.84 221.56 607.92 219.04 605.40 219.04L604.56 219.04ZM673.44 202.24C668.88 203.32 666.60 205.84 666.60 209.80C667.44 215.20 668.52 226.24 669.72 242.92C670.92 257.68 674.40 265.12 680.28 265.12L681.12 265.12C686.04 265.12 692.28 256.72 699.72 239.80C700.08 239.80 700.68 240.88 701.52 243.04C705.12 257.44 709.20 264.64 713.64 264.64C716.64 264.64 719.28 262.84 721.32 259.36C727.92 243.76 732 229 733.56 214.96L733.56 214.48C733.56 210.88 731.52 208.24 727.56 206.68L725.04 206.68C722.52 206.68 718.80 217.12 714.12 238L713.64 238C708.72 220 704.52 211 701.04 211L698.88 211C697.08 211 695.16 212.08 693.36 214.12C690.24 227.08 686.88 236.44 683.28 242.32L681.96 233.56C680.76 212.68 677.88 202.24 673.44 202.24ZM760.56 220.84C756.48 220.96 753.84 221.32 752.76 221.92C743.52 225.88 738.84 233.08 738.84 243.52L738.84 244.48C738.84 246.52 738.96 247.72 739.32 248.08C741.84 259.84 748.56 265.72 759.24 265.72C769.80 265.72 775.56 263.20 776.40 258.16C776.40 255.64 775.20 253.72 772.68 252.52L759.24 254.80C756.36 254.80 754.20 253 752.88 249.52L757.44 249.28C760.68 249.28 764.40 248.80 768.60 247.84C773.88 246.64 776.52 242.44 776.52 235.24C775.56 226.24 770.28 221.44 760.56 220.84ZM752.52 238.24C753.12 235.24 754.92 232.72 758.16 230.92L760.56 230.68C763.44 231.64 765.36 233.80 766.20 237.04C760.56 238.24 756 238.84 752.52 238.84ZM789.00 203.08C786.72 203.08 784.92 204.64 783.60 207.76C783.60 214.24 783.48 229.12 783.12 252.40C783.12 252.52 783.00 254.44 782.64 257.92L784.44 261.28C784.44 262.36 788.40 263.92 796.32 265.96L800.52 265.96C811.44 265.96 817.80 258.40 819.60 243.16L819.60 238.84C817.68 228.52 812.40 223.36 803.88 223.36C802.92 223.36 800.52 223.60 796.68 224.20C796.20 224.20 795.96 223.96 795.84 223.36L795.84 220.36C795.84 217.12 795.72 212.92 795.36 207.76C794.04 204.64 791.88 203.08 789.00 203.08ZM796.68 236.92C798.96 236.32 800.28 236.08 800.88 236.08L803.88 236.08C805.56 236.08 806.40 237.64 806.40 240.64L806.40 241.48C806.40 248.68 804.60 252.28 800.88 252.40L796.68 252.40Z"/></svg>