<svg width="800" height="400" viewBox="0 0 800 400" xmlns="http://www.w3.org/2000/svg"><mask id="satori_om-id"><rect x="0" y="0" width="800" height="400" fill="#fff"/></mask><rect x="0" y="0" width="800" height="400" fill="white"/><mask id="satori_om-id-0"><rect x="42" y="42" width="128" height="24" fill="#fff"/></mask><mask id="satori_om-id-0-0"><rect x="42" y="42" width="24" height="24" fill="#fff"/></mask><rect x="42" y="42" width="24" height="24" fill="black"/><mask id="satori_om-id-0-1"><rect x="74" y="42" width="96" height="24" fill="#fff"/></mask><path fill="black" d="M74.4 49.8L81.0 49.8L81.0 52.1L74.4 52.1L74.4 49.8ZM75.9 57.8L75.9 47.2L79.0 47.2L79.0 57.4Q79.0 57.8 79.1 58.0Q79.2 58.2 79.4 58.3Q79.7 58.4 80.0 58.4L80.0 58.4Q80.2 58.4 80.4 58.4Q80.6 58.4 80.7 58.3L80.7 58.3L81.2 60.6Q81.0 60.7 80.6 60.8Q80.2 60.8 79.6 60.9L79.6 60.9Q78.5 60.9 77.7 60.6Q76.8 60.2 76.4 59.5Q75.9 58.8 75.9 57.8L75.9 57.8ZM91.6 52.9L91.6 52.9L88.8 53.1Q88.7 52.7 88.5 52.4Q88.3 52.2 87.9 52.0Q87.5 51.8 87.0 51.8L87.0 51.8Q86.3 51.8 85.8 52.1Q85.3 52.4 85.3 52.9L85.3 52.9Q85.3 53.3 85.6 53.6Q85.9 53.8 86.7 54.0L86.7 54.0L88.7 54.4Q90.3 54.7 91.1 55.4Q91.8 56.2 91.8 57.3L91.8 57.3Q91.8 58.4 91.2 59.2Q90.6 60.0 89.5 60.5Q88.4 60.9 87.0 60.9L87.0 60.9Q84.8 60.9 83.5 60.0Q82.2 59.1 82.0 57.6L82.0 57.6L85.0 57.4Q85.1 58.1 85.7 58.4Q86.2 58.8 87.0 58.8L87.0 58.8Q87.8 58.8 88.3 58.4Q88.8 58.1 88.8 57.6L88.8 57.6Q88.8 57.2 88.4 57.0Q88.1 56.7 87.4 56.6L87.4 56.6L85.5 56.2Q83.9 55.9 83.1 55.1Q82.3 54.3 82.3 53.1L82.3 53.1Q82.3 52.0 82.9 51.3Q83.5 50.5 84.5 50.1Q85.5 49.7 86.9 49.7L86.9 49.7Q89.0 49.7 90.2 50.5Q91.4 51.4 91.6 52.9ZM100.4 56.1L100.4 56.1L100.4 49.8L103.4 49.8L103.4 60.7L100.5 60.7L100.5 58.7L100.4 58.7Q100.1 59.7 99.2 60.3Q98.3 60.9 97.1 60.9L97.1 60.9Q96.0 60.9 95.2 60.4Q94.4 59.9 93.9 59.0Q93.4 58.0 93.4 56.8L93.4 56.8L93.4 49.8L96.4 49.8L96.4 56.2Q96.5 57.2 97.0 57.7Q97.5 58.3 98.3 58.3L98.3 58.3Q98.9 58.3 99.4 58.1Q99.8 57.8 100.1 57.3Q100.4 56.8 100.4 56.1ZM108.6 60.7L105.5 60.7L105.5 49.8L108.6 49.8L108.6 60.7ZM107.1 48.4L107.1 48.4Q106.4 48.4 105.9 48.0Q105.4 47.5 105.4 46.9L105.4 46.9Q105.4 46.2 105.9 45.8Q106.4 45.3 107.1 45.3L107.1 45.3Q107.7 45.3 108.2 45.8Q108.7 46.2 108.7 46.9L108.7 46.9Q108.7 47.5 108.2 48.0Q107.7 48.4 107.1 48.4ZM120.9 64.8L117.9 64.8L117.9 59.0L117.8 59.0Q117.6 59.4 117.2 59.9Q116.8 60.3 116.2 60.6Q115.6 60.9 114.7 60.9L114.7 60.9Q113.4 60.9 112.4 60.3Q111.4 59.6 110.8 58.4Q110.3 57.1 110.3 55.3L110.3 55.3Q110.3 53.4 110.9 52.2Q111.5 50.9 112.5 50.3Q113.5 49.7 114.7 49.7L114.7 49.7Q115.6 49.7 116.2 50.0Q116.8 50.3 117.2 50.7Q117.6 51.2 117.8 51.6L117.8 51.6L117.9 51.6L117.9 49.8L120.9 49.8L120.9 64.8ZM115.6 58.5L115.6 58.5Q116.4 58.5 116.9 58.1Q117.4 57.7 117.7 57.0Q117.9 56.2 117.9 55.3L117.9 55.3Q117.9 54.3 117.7 53.6Q117.4 52.9 116.9 52.5Q116.4 52.1 115.6 52.1L115.6 52.1Q114.9 52.1 114.4 52.5Q113.9 52.9 113.6 53.6Q113.3 54.3 113.3 55.3L113.3 55.3Q113.3 56.2 113.6 56.9Q113.9 57.7 114.4 58.1Q114.9 58.5 115.6 58.5ZM127.9 65.0L127.9 65.0Q126.4 65.0 125.4 64.6Q124.3 64.2 123.7 63.5Q123.1 62.9 122.9 62.0L122.9 62.0L125.7 61.6Q125.8 61.9 126.1 62.2Q126.4 62.5 126.9 62.7Q127.3 62.9 128.0 62.9L128.0 62.9Q129.0 62.9 129.6 62.4Q130.2 61.9 130.2 60.8L130.2 60.8L130.2 58.8L130.1 58.8Q129.9 59.2 129.5 59.6Q129.1 60.1 128.5 60.3Q127.9 60.6 127.0 60.6L127.0 60.6Q125.8 60.6 124.8 60.0Q123.8 59.4 123.2 58.2Q122.6 57.1 122.6 55.2L122.6 55.2Q122.6 53.4 123.2 52.1Q123.8 50.9 124.8 50.3Q125.8 49.7 127.0 49.7L127.0 49.7Q127.9 49.7 128.5 50.0Q129.2 50.3 129.5 50.7Q129.9 51.2 130.1 51.6L130.1 51.6L130.2 51.6L130.2 49.8L133.2 49.8L133.2 60.8Q133.2 62.2 132.6 63.2Q131.9 64.1 130.7 64.6Q129.5 65.0 127.9 65.0ZM128.0 58.3L128.0 58.3Q128.7 58.3 129.2 57.9Q129.7 57.6 130.0 56.9Q130.3 56.2 130.3 55.2L130.3 55.2Q130.3 54.3 130.0 53.6Q129.7 52.9 129.2 52.5Q128.7 52.1 128.0 52.1L128.0 52.1Q127.2 52.1 126.7 52.5Q126.2 52.9 125.9 53.6Q125.7 54.3 125.7 55.2L125.7 55.2Q125.7 56.2 125.9 56.9Q126.2 57.5 126.7 57.9Q127.2 58.3 128.0 58.3ZM137.1 60.9L137.1 60.9Q136.4 60.9 135.9 60.4Q135.4 59.9 135.4 59.2L135.4 59.2Q135.4 58.5 135.9 58.0Q136.4 57.5 137.1 57.5L137.1 57.5Q137.8 57.5 138.3 58.0Q138.8 58.5 138.8 59.2L138.8 59.2Q138.8 59.7 138.6 60.1Q138.3 60.4 137.9 60.7Q137.6 60.9 137.1 60.9ZM144.0 60.7L141.0 60.7L141.0 49.8L143.8 49.8L143.8 51.7L144.0 51.7Q144.3 50.8 145.1 50.2Q145.9 49.7 147.0 49.7L147.0 49.7Q148.1 49.7 148.9 50.2Q149.7 50.8 150.0 51.7L150.0 51.7L150.1 51.7Q150.4 50.8 151.3 50.2Q152.2 49.7 153.4 49.7L153.4 49.7Q154.9 49.7 155.9 50.6Q156.8 51.6 156.8 53.4L156.8 53.4L156.8 60.7L153.8 60.7L153.8 54.0Q153.8 53.1 153.3 52.6Q152.8 52.2 152.1 52.2L152.1 52.2Q151.3 52.2 150.8 52.7Q150.4 53.2 150.4 54.1L150.4 54.1L150.4 60.7L147.4 60.7L147.4 53.9Q147.4 53.1 147.0 52.6Q146.5 52.2 145.8 52.2L145.8 52.2Q145.3 52.2 144.9 52.4Q144.5 52.7 144.2 53.1Q144.0 53.6 144.0 54.2L144.0 54.2L144.0 60.7ZM163.9 60.9L163.9 60.9Q162.2 60.9 161.0 60.2Q159.7 59.6 159.1 58.3Q158.4 57.0 158.4 55.3L158.4 55.3Q158.4 53.6 159.1 52.4Q159.7 51.1 160.9 50.4Q162.1 49.7 163.7 49.7L163.7 49.7Q164.8 49.7 165.7 50.0Q166.7 50.4 167.4 51.0Q168.1 51.7 168.5 52.8Q168.9 53.8 168.9 55.2L168.9 55.2L168.9 56.0L159.7 56.0L159.7 54.2L166.0 54.2Q166.0 53.5 165.7 53.0Q165.4 52.5 164.9 52.2Q164.4 51.9 163.8 51.9L163.8 51.9Q163.1 51.9 162.6 52.2Q162.0 52.6 161.7 53.1Q161.4 53.6 161.4 54.3L161.4 54.3L161.4 56.0Q161.4 56.9 161.7 57.4Q162.0 58.0 162.6 58.4Q163.1 58.7 163.9 58.7L163.9 58.7Q164.4 58.7 164.8 58.5Q165.2 58.4 165.5 58.1Q165.8 57.8 166.0 57.4L166.0 57.4L168.8 57.6Q168.6 58.6 167.9 59.4Q167.3 60.1 166.2 60.5Q165.2 60.9 163.9 60.9Z "/><mask id="satori_om-id-1"><rect x="186" y="152" width="428" height="96" fill="#fff"/></mask><rect x="186" y="152" width="428" height="96" fill="black"/><path fill="white" d="M246.3 189.5L237.4 189.5L237.4 184.4L261.3 184.4L261.3 189.5L252.4 189.5L252.4 213.5L246.3 213.5L246.3 189.5ZM275.9 204.2L275.9 204.2L275.9 191.7L281.9 191.7L281.9 213.5L276.1 213.5L276.1 209.5L275.9 209.5Q275.1 211.4 273.4 212.6Q271.7 213.8 269.3 213.8L269.3 213.8Q267.1 213.8 265.4 212.8Q263.7 211.8 262.8 209.9Q261.9 208.1 261.9 205.5L261.9 205.5L261.9 191.7L267.9 191.7L267.9 204.5Q267.9 206.4 269.0 207.5Q270.0 208.6 271.7 208.6L271.7 208.6Q272.8 208.6 273.7 208.1Q274.7 207.6 275.3 206.6Q275.9 205.6 275.9 204.2ZM292.5 213.5L286.4 213.5L286.4 191.7L292.5 191.7L292.5 213.5ZM289.5 188.8L289.5 188.8Q288.1 188.8 287.2 187.9Q286.2 187.0 286.2 185.8L286.2 185.8Q286.2 184.5 287.2 183.6Q288.1 182.7 289.5 182.7L289.5 182.7Q290.8 182.7 291.8 183.6Q292.7 184.5 292.7 185.8L292.7 185.8Q292.7 187.0 291.8 187.9Q290.8 188.8 289.5 188.8ZM317.4 221.7L311.4 221.7L311.4 210.0L311.2 210.0Q310.8 210.9 310.0 211.8Q309.2 212.7 308.0 213.2Q306.8 213.8 305.0 213.8L305.0 213.8Q302.5 213.8 300.5 212.5Q298.5 211.3 297.3 208.8Q296.2 206.2 296.2 202.6L296.2 202.6Q296.2 198.8 297.4 196.4Q298.6 193.9 300.6 192.6Q302.6 191.4 305.0 191.4L305.0 191.4Q306.8 191.4 308.1 192.0Q309.3 192.6 310.1 193.5Q310.8 194.4 311.2 195.3L311.2 195.3L311.5 195.3L311.5 191.7L317.4 191.7L317.4 221.7ZM306.9 209.0L306.9 209.0Q308.4 209.0 309.4 208.2Q310.4 207.4 311.0 206.0Q311.5 204.5 311.5 202.6L311.5 202.6Q311.5 200.6 311.0 199.2Q310.5 197.7 309.4 197.0Q308.4 196.2 306.9 196.2L306.9 196.2Q305.5 196.2 304.4 197.0Q303.4 197.8 302.9 199.2Q302.4 200.7 302.4 202.6L302.4 202.6Q302.4 204.5 302.9 205.9Q303.4 207.4 304.4 208.2Q305.5 209.0 306.9 209.0ZM331.8 222.1L331.8 222.1Q328.9 222.1 326.8 221.3Q324.7 220.5 323.4 219.1Q322.2 217.7 321.8 216.0L321.8 216.0L327.4 215.3Q327.7 215.9 328.2 216.5Q328.8 217.1 329.7 217.4Q330.6 217.8 331.9 217.8L331.9 217.8Q333.9 217.8 335.2 216.8Q336.5 215.8 336.5 213.6L336.5 213.6L336.5 209.6L336.2 209.6Q335.8 210.5 335.0 211.3Q334.2 212.1 333.0 212.7Q331.7 213.2 330.0 213.2L330.0 213.2Q327.5 213.2 325.5 212.0Q323.5 210.9 322.3 208.5Q321.2 206.1 321.2 202.5L321.2 202.5Q321.2 198.8 322.4 196.3Q323.6 193.8 325.6 192.6Q327.6 191.4 330.0 191.4L330.0 191.4Q331.8 191.4 333.1 192.0Q334.3 192.6 335.1 193.5Q335.8 194.4 336.2 195.3L336.2 195.3L336.5 195.3L336.5 191.7L342.5 191.7L342.5 213.7Q342.5 216.5 341.1 218.3Q339.7 220.2 337.3 221.2Q334.9 222.1 331.8 222.1ZM331.9 208.6L331.9 208.6Q333.4 208.6 334.4 207.9Q335.4 207.2 336.0 205.8Q336.5 204.4 336.5 202.5L336.5 202.5Q336.5 200.6 336.0 199.2Q335.4 197.7 334.4 197.0Q333.4 196.2 331.9 196.2L331.9 196.2Q330.4 196.2 329.4 197.0Q328.4 197.8 327.9 199.2Q327.3 200.6 327.3 202.5L327.3 202.5Q327.3 204.4 327.9 205.8Q328.4 207.1 329.4 207.9Q330.4 208.6 331.9 208.6ZM346.5 184.4L350.9 184.4L350.9 195.4L346.5 195.4L346.5 184.4ZM373.2 197.9L373.2 197.9L367.6 198.2Q367.5 197.5 367.0 196.9Q366.5 196.4 365.8 196.0Q365.0 195.7 364.0 195.7L364.0 195.7Q362.6 195.7 361.6 196.3Q360.6 196.8 360.6 197.8L360.6 197.8Q360.6 198.6 361.3 199.1Q361.9 199.7 363.4 200.0L363.4 200.0L367.3 200.8Q370.5 201.5 372.1 202.9Q373.7 204.4 373.7 206.7L373.7 206.7Q373.7 208.9 372.4 210.5Q371.1 212.1 369.0 213.0Q366.8 213.9 363.9 213.9L363.9 213.9Q359.6 213.9 357.0 212.1Q354.5 210.3 354.0 207.2L354.0 207.2L360.0 206.8Q360.3 208.2 361.3 208.9Q362.3 209.5 364.0 209.5L364.0 209.5Q365.5 209.5 366.5 208.9Q367.5 208.3 367.5 207.3L367.5 207.3Q367.5 206.5 366.8 206.0Q366.1 205.4 364.7 205.2L364.7 205.2L360.9 204.4Q357.7 203.8 356.2 202.2Q354.6 200.6 354.6 198.2L354.6 198.2Q354.6 196.1 355.8 194.5Q356.9 193.0 359.0 192.2Q361.1 191.4 363.9 191.4L363.9 191.4Q368.0 191.4 370.4 193.1Q372.8 194.9 373.2 197.9Z M395.3 213.5L389.2 213.5L389.2 184.4L400.7 184.4Q404.0 184.4 406.3 185.6Q408.6 186.9 409.9 189.1Q411.1 191.3 411.1 194.2L411.1 194.2Q411.1 197.1 409.8 199.4Q408.6 201.6 406.2 202.8Q403.9 204.0 400.5 204.0L400.5 204.0L393.2 204.0L393.2 199.1L399.5 199.1Q401.3 199.1 402.4 198.5Q403.6 197.9 404.2 196.8Q404.7 195.7 404.7 194.2L404.7 194.2Q404.7 192.8 404.2 191.7Q403.6 190.6 402.4 190.0Q401.3 189.4 399.5 189.4L399.5 189.4L395.3 189.4L395.3 213.5ZM424.1 213.9L424.1 213.9Q420.8 213.9 418.4 212.5Q416.0 211.1 414.7 208.5Q413.4 206.0 413.4 202.7L413.4 202.7Q413.4 199.3 414.7 196.7Q416.0 194.2 418.4 192.8Q420.8 191.4 424.1 191.4L424.1 191.4Q427.5 191.4 429.9 192.8Q432.3 194.2 433.6 196.7Q434.9 199.3 434.9 202.7L434.9 202.7Q434.9 206.0 433.6 208.5Q432.3 211.1 429.9 212.5Q427.5 213.9 424.1 213.9ZM424.2 209.2L424.2 209.2Q425.7 209.2 426.7 208.4Q427.7 207.5 428.2 206.0Q428.7 204.5 428.7 202.6L428.7 202.6Q428.7 200.7 428.2 199.2Q427.7 197.7 426.7 196.9Q425.7 196.0 424.2 196.0L424.2 196.0Q422.7 196.0 421.6 196.9Q420.6 197.7 420.1 199.2Q419.6 200.7 419.6 202.6L419.6 202.6Q419.6 204.5 420.1 206.0Q420.6 207.5 421.6 208.4Q422.7 209.2 424.2 209.2ZM444.6 213.5L438.5 213.5L438.5 191.7L444.4 191.7L444.4 195.5L444.6 195.5Q445.2 193.4 446.6 192.4Q448.0 191.3 449.8 191.3L449.8 191.3Q450.3 191.3 450.8 191.4Q451.4 191.5 451.7 191.6L451.7 191.6L451.7 196.9Q451.3 196.8 450.6 196.7Q449.8 196.6 449.2 196.6L449.2 196.6Q447.9 196.6 446.8 197.2Q445.8 197.7 445.2 198.8Q444.6 199.8 444.6 201.1L444.6 201.1L444.6 213.5ZM454.1 191.7L467.2 191.7L467.2 196.2L454.1 196.2L454.1 191.7ZM457.1 207.6L457.1 186.4L463.1 186.4L463.1 206.8Q463.1 207.6 463.4 208.1Q463.6 208.5 464.1 208.7Q464.6 208.9 465.2 208.9L465.2 208.9Q465.6 208.9 466.0 208.8Q466.5 208.7 466.7 208.7L466.7 208.7L467.6 213.2Q467.2 213.3 466.4 213.5Q465.5 213.7 464.4 213.8L464.4 213.8Q462.2 213.9 460.5 213.2Q458.9 212.5 458.0 211.1Q457.1 209.7 457.1 207.6L457.1 207.6ZM469.1 191.7L482.6 191.7L482.6 196.2L469.1 196.2L469.1 191.7ZM478.2 213.5L472.2 213.5L472.2 190.1Q472.2 187.7 473.1 186.1Q474.1 184.6 475.7 183.8Q477.3 183.0 479.4 183.0L479.4 183.0Q480.8 183.0 481.9 183.2Q483.1 183.4 483.6 183.6L483.6 183.6L482.6 188.2Q482.2 188.0 481.7 187.9Q481.2 187.8 480.6 187.8L480.6 187.8Q479.3 187.8 478.8 188.5Q478.2 189.1 478.2 190.2L478.2 190.2L478.2 213.5ZM495.1 213.9L495.1 213.9Q491.7 213.9 489.3 212.5Q486.9 211.1 485.6 208.5Q484.3 206.0 484.3 202.7L484.3 202.7Q484.3 199.3 485.6 196.7Q486.9 194.2 489.3 192.8Q491.7 191.4 495.1 191.4L495.1 191.4Q498.4 191.4 500.8 192.8Q503.2 194.2 504.5 196.7Q505.8 199.3 505.8 202.7L505.8 202.7Q505.8 206.0 504.5 208.5Q503.2 211.1 500.8 212.5Q498.4 213.9 495.1 213.9ZM495.1 209.2L495.1 209.2Q496.6 209.2 497.6 208.4Q498.6 207.5 499.1 206.0Q499.6 204.5 499.6 202.6L499.6 202.6Q499.6 200.7 499.1 199.2Q498.6 197.7 497.6 196.9Q496.6 196.0 495.1 196.0L495.1 196.0Q493.6 196.0 492.5 196.9Q491.5 197.7 491.0 199.2Q490.5 200.7 490.5 202.6L490.5 202.6Q490.5 204.5 491.0 206.0Q491.5 207.5 492.5 208.4Q493.6 209.2 495.1 209.2ZM509.4 184.4L515.5 184.4L515.5 213.5L509.4 213.5L509.4 184.4ZM526.0 213.5L520.0 213.5L520.0 191.7L526.0 191.7L526.0 213.5ZM523.0 188.8L523.0 188.8Q521.7 188.8 520.7 187.9Q519.8 187.0 519.8 185.8L519.8 185.8Q519.8 184.5 520.7 183.6Q521.7 182.7 523.0 182.7L523.0 182.7Q524.4 182.7 525.3 183.6Q526.3 184.5 526.3 185.8L526.3 185.8Q526.3 187.0 525.3 187.9Q524.4 188.8 523.0 188.8ZM540.4 213.9L540.4 213.9Q537.1 213.9 534.7 212.5Q532.3 211.1 531.0 208.5Q529.7 206.0 529.7 202.7L529.7 202.7Q529.7 199.3 531.0 196.7Q532.3 194.2 534.7 192.8Q537.1 191.4 540.4 191.4L540.4 191.4Q543.7 191.4 546.1 192.8Q548.5 194.2 549.8 196.7Q551.1 199.3 551.1 202.7L551.1 202.7Q551.1 206.0 549.8 208.5Q548.5 211.1 546.1 212.5Q543.7 213.9 540.4 213.9ZM540.4 209.2L540.4 209.2Q541.9 209.2 542.9 208.4Q543.9 207.5 544.5 206.0Q545.0 204.5 545.0 202.6L545.0 202.6Q545.0 200.7 544.5 199.2Q543.9 197.7 542.9 196.9Q541.9 196.0 540.4 196.0L540.4 196.0Q538.9 196.0 537.9 196.9Q536.8 197.7 536.3 199.2Q535.8 200.7 535.8 202.6L535.8 202.6Q535.8 204.5 536.3 206.0Q536.8 207.5 537.9 208.4Q538.9 209.2 540.4 209.2ZM558.3 213.8L558.3 213.8Q556.9 213.8 555.9 212.8Q554.9 211.8 554.9 210.4L554.9 210.4Q554.9 209.0 555.9 208.0Q556.9 207.1 558.3 207.1L558.3 207.1Q559.7 207.1 560.7 208.0Q561.7 209.0 561.7 210.4L561.7 210.4Q561.7 211.4 561.2 212.1Q560.8 212.9 560.0 213.4Q559.2 213.8 558.3 213.8Z "/></svg>