<svg width="1280" height="640" viewBox="0 0 1280 640" xmlns="http://www.w3.org/2000/svg"><mask id="satori_om-id"><rect x="0" y="0" width="1280" height="640" fill="#fff"/></mask><rect x="0" y="0" width="1280" height="640" fill="black"/><mask id="satori_om-id-0"><rect x="42" y="42" width="271" height="56" fill="#fff"/></mask><mask id="satori_om-id-0-0"><rect x="42" y="50" width="40" height="40" fill="#fff"/></mask><rect x="42" y="50" width="40" height="40" fill="white"/><mask id="satori_om-id-0-1"><rect x="102" y="42" width="211" height="56" fill="#fff"/></mask><g  ><path fill="white" d="M103.0 61.9L118.1 61.9L118.1 67.1L103.0 67.1L103.0 61.9ZM106.4 80.2L106.4 55.9L113.4 55.9L113.4 79.3Q113.4 80.3 113.7 80.8Q114.0 81.3 114.5 81.5Q115.1 81.7 115.8 81.7L115.8 81.7Q116.2 81.7 116.7 81.7Q117.2 81.6 117.5 81.5L117.5 81.5L118.6 86.7Q118.1 86.9 117.1 87.1Q116.2 87.3 114.8 87.3L114.8 87.3Q112.3 87.4 110.4 86.7Q108.5 85.9 107.5 84.3Q106.4 82.7 106.4 80.2L106.4 80.2ZM142.9 69.1L142.9 69.1L136.5 69.5Q136.3 68.6 135.8 68.0Q135.2 67.3 134.4 66.9Q133.5 66.5 132.3 66.5L132.3 66.5Q130.7 66.5 129.6 67.2Q128.5 67.9 128.5 69.0L128.5 69.0Q128.5 69.9 129.2 70.5Q129.9 71.1 131.6 71.5L131.6 71.5L136.2 72.4Q139.8 73.2 141.6 74.8Q143.4 76.5 143.4 79.2L143.4 79.2Q143.4 81.7 142.0 83.6Q140.5 85.4 138.0 86.5Q135.5 87.5 132.3 87.5L132.3 87.5Q127.3 87.5 124.3 85.4Q121.4 83.3 120.9 79.7L120.9 79.7L127.7 79.4Q128.0 80.9 129.2 81.7Q130.4 82.5 132.3 82.5L132.3 82.5Q134.1 82.5 135.2 81.8Q136.3 81.1 136.4 79.9L136.4 79.9Q136.3 79.0 135.6 78.4Q134.8 77.8 133.1 77.4L133.1 77.4L128.8 76.6Q125.1 75.8 123.3 74.0Q121.5 72.2 121.5 69.4L121.5 69.4Q121.5 67.0 122.9 65.2Q124.2 63.5 126.6 62.5Q129.0 61.6 132.2 61.6L132.2 61.6Q136.9 61.6 139.7 63.6Q142.4 65.6 142.9 69.1ZM163.6 76.3L163.6 76.3L163.6 61.9L170.6 61.9L170.6 87L163.9 87L163.9 82.4L163.6 82.4Q162.8 84.6 160.8 86.0Q158.8 87.3 156.0 87.3L156.0 87.3Q153.5 87.3 151.6 86.2Q149.7 85.0 148.6 82.9Q147.5 80.8 147.5 77.9L147.5 77.9L147.5 61.9L154.5 61.9L154.5 76.6Q154.5 78.9 155.7 80.2Q156.8 81.4 158.8 81.4L158.8 81.4Q160.1 81.4 161.2 80.9Q162.3 80.3 162.9 79.1Q163.6 78.0 163.6 76.3ZM182.7 87L175.8 87L175.8 61.9L182.7 61.9L182.7 87ZM179.3 58.7L179.3 58.7Q177.7 58.7 176.6 57.6Q175.5 56.6 175.5 55.1L175.5 55.1Q175.5 53.7 176.6 52.7Q177.7 51.6 179.3 51.6L179.3 51.6Q180.8 51.6 181.9 52.7Q183.0 53.7 183.0 55.1L183.0 55.1Q183.0 56.6 181.9 57.6Q180.8 58.7 179.3 58.7ZM211.5 96.4L204.6 96.4L204.6 83.0L204.4 83.0Q203.9 84.0 203.0 85.0Q202.1 86.1 200.7 86.7Q199.3 87.4 197.2 87.4L197.2 87.4Q194.4 87.4 192.1 85.9Q189.7 84.5 188.4 81.6Q187.1 78.7 187.1 74.5L187.1 74.5Q187.1 70.2 188.4 67.3Q189.8 64.4 192.1 63.0Q194.5 61.6 197.2 61.6L197.2 61.6Q199.3 61.6 200.7 62.3Q202.1 63.0 203.0 64.1Q203.9 65.1 204.4 66.1L204.4 66.1L204.6 66.1L204.6 61.9L211.5 61.9L211.5 96.4ZM199.4 81.9L199.4 81.9Q201.1 81.9 202.3 80.9Q203.5 80.0 204.1 78.4Q204.7 76.7 204.7 74.5L204.7 74.5Q204.7 72.2 204.1 70.6Q203.5 68.9 202.3 68.0Q201.1 67.1 199.4 67.1L199.4 67.1Q197.7 67.1 196.5 68.1Q195.4 69.0 194.8 70.6Q194.2 72.3 194.2 74.5L194.2 74.5Q194.2 76.6 194.8 78.3Q195.4 80.0 196.6 80.9Q197.7 81.9 199.4 81.9ZM228.1 96.9L228.1 96.9Q224.7 96.9 222.3 96.0Q219.9 95.1 218.4 93.5Q217.0 91.9 216.6 89.9L216.6 89.9L223.0 89.1Q223.3 89.8 224.0 90.5Q224.6 91.1 225.7 91.5Q226.7 91.9 228.2 91.9L228.2 91.9Q230.5 91.9 232.0 90.8Q233.5 89.7 233.5 87.1L233.5 87.1L233.5 82.6L233.2 82.6Q232.7 83.6 231.8 84.5Q230.9 85.5 229.4 86.1Q228.0 86.6 226.0 86.6L226.0 86.6Q223.2 86.6 220.9 85.3Q218.6 84.0 217.2 81.3Q215.8 78.6 215.8 74.4L215.8 74.4Q215.8 70.1 217.2 67.3Q218.6 64.4 220.9 63.0Q223.2 61.6 226.0 61.6L226.0 61.6Q228.1 61.6 229.5 62.3Q230.9 63.0 231.8 64.1Q232.7 65.1 233.2 66.1L233.2 66.1L233.4 66.1L233.4 61.9L240.3 61.9L240.3 87.2Q240.3 90.4 238.8 92.6Q237.2 94.8 234.4 95.8Q231.7 96.9 228.1 96.9ZM228.2 81.4L228.2 81.4Q229.9 81.4 231.1 80.6Q232.2 79.7 232.9 78.2Q233.5 76.6 233.5 74.4L233.5 74.4Q233.5 72.2 232.9 70.5Q232.2 68.9 231.1 68.0Q229.9 67.1 228.2 67.1L228.2 67.1Q226.5 67.1 225.3 68.0Q224.1 69.0 223.5 70.6Q222.9 72.2 222.9 74.4L222.9 74.4Q222.9 76.5 223.5 78.1Q224.2 79.7 225.3 80.6Q226.5 81.4 228.2 81.4ZM249.6 87.4L249.6 87.4Q248.0 87.4 246.9 86.3Q245.7 85.1 245.7 83.5L245.7 83.5Q245.7 81.9 246.9 80.8Q248.0 79.6 249.6 79.6L249.6 79.6Q251.2 79.6 252.4 80.8Q253.5 81.9 253.5 83.5L253.5 83.5Q253.5 84.6 253.0 85.5Q252.5 86.4 251.6 86.9Q250.7 87.4 249.6 87.4ZM268.2 87.4L268.2 87.4Q265.3 87.4 263.0 85.9Q260.7 84.5 259.3 81.6Q258.0 78.7 258.0 74.5L258.0 74.5Q258.0 70.2 259.4 67.3Q260.8 64.4 263.1 63.0Q265.4 61.6 268.2 61.6L268.2 61.6Q270.3 61.6 271.7 62.3Q273.1 63.0 274.0 64.1Q274.8 65.1 275.3 66.1L275.3 66.1L275.5 66.1L275.5 53.5L282.5 53.5L282.5 87L275.6 87L275.6 83.0L275.3 83.0Q274.8 84.0 273.9 85.0Q273.0 86.1 271.6 86.7Q270.2 87.4 268.2 87.4ZM270.4 81.9L270.4 81.9Q272.1 81.9 273.2 80.9Q274.4 80.0 275.0 78.4Q275.7 76.7 275.7 74.5L275.7 74.5Q275.7 72.2 275.0 70.6Q274.4 68.9 273.2 68.0Q272.1 67.1 270.4 67.1L270.4 67.1Q268.7 67.1 267.5 68.1Q266.3 69.0 265.7 70.6Q265.1 72.3 265.1 74.5L265.1 74.5Q265.1 76.6 265.7 78.3Q266.3 80.0 267.5 80.9Q268.7 81.9 270.4 81.9ZM299.3 87.5L299.3 87.5Q295.4 87.5 292.6 85.9Q289.8 84.3 288.3 81.4Q286.8 78.5 286.8 74.6L286.8 74.6Q286.8 70.7 288.3 67.8Q289.8 64.8 292.6 63.2Q295.3 61.6 299.0 61.6L299.0 61.6Q301.5 61.6 303.6 62.4Q305.8 63.2 307.4 64.8Q309.0 66.3 309.9 68.7Q310.8 71.1 310.8 74.3L310.8 74.3L310.8 76.2L289.6 76.2L289.6 71.9L304.2 71.9Q304.2 70.4 303.6 69.3Q302.9 68.1 301.8 67.4Q300.6 66.8 299.1 66.8L299.1 66.8Q297.5 66.8 296.3 67.5Q295.1 68.2 294.4 69.4Q293.7 70.7 293.7 72.2L293.7 72.2L293.7 76.3Q293.7 78.1 294.4 79.5Q295.1 80.8 296.4 81.6Q297.6 82.3 299.4 82.3L299.4 82.3Q300.5 82.3 301.5 82.0Q302.5 81.6 303.2 81.0Q303.8 80.3 304.2 79.4L304.2 79.4L310.6 79.8Q310.1 82.1 308.6 83.9Q307.1 85.6 304.7 86.5Q302.4 87.5 299.3 87.5Z "/></g><mask id="satori_om-id-1"><rect x="308" y="236" width="664" height="168" fill="#fff"/></mask><rect x="308" y="236" width="664" height="168" fill="white"/><g  ><path fill="black" d="M374.5 304.6L360.3 304.6L360.3 296.5L398.5 296.5L398.5 304.6L384.3 304.6L384.3 343L374.5 343L374.5 304.6ZM428.6 318.0L428.6 318.0L419.8 318.6Q419.5 317.5 418.8 316.5Q418.0 315.6 416.8 315.1Q415.6 314.5 413.9 314.5L413.9 314.5Q411.7 314.5 410.1 315.4Q408.6 316.4 408.6 318.0L408.6 318.0Q408.6 319.2 409.6 320.1Q410.6 320.9 413.0 321.5L413.0 321.5L419.3 322.7Q424.4 323.8 426.9 326.1Q429.4 328.4 429.4 332.2L429.4 332.2Q429.4 335.6 427.4 338.2Q425.4 340.8 421.9 342.2Q418.4 343.7 413.9 343.7L413.9 343.7Q407.0 343.7 402.9 340.8Q398.7 337.9 398.0 332.9L398.0 332.9L407.6 332.4Q408.0 334.5 409.7 335.6Q411.3 336.7 413.9 336.7L413.9 336.7Q416.5 336.7 418.0 335.7Q419.6 334.7 419.6 333.2L419.6 333.2Q419.6 331.8 418.5 331.0Q417.4 330.1 415.1 329.7L415.1 329.7L409.1 328.5Q404.0 327.5 401.5 324.9Q399.0 322.4 399.0 318.5L399.0 318.5Q399.0 315.1 400.8 312.7Q402.6 310.3 406.0 309.0Q409.3 307.6 413.8 307.6L413.8 307.6Q420.4 307.6 424.2 310.4Q428.0 313.2 428.6 318.0ZM457.6 328.1L457.6 328.1L457.6 308.1L467.3 308.1L467.3 343L458.0 343L458.0 336.7L457.6 336.7Q456.5 339.7 453.7 341.6Q451.0 343.5 447.0 343.5L447.0 343.5Q443.5 343.5 440.9 341.9Q438.2 340.3 436.7 337.3Q435.2 334.4 435.2 330.3L435.2 330.3L435.2 308.1L444.9 308.1L444.9 328.6Q444.9 331.7 446.6 333.5Q448.2 335.3 451.0 335.3L451.0 335.3Q452.7 335.3 454.2 334.5Q455.7 333.7 456.7 332.1Q457.6 330.5 457.6 328.1ZM484.4 343L474.7 343L474.7 308.1L484.4 308.1L484.4 343ZM479.6 303.6L479.6 303.6Q477.4 303.6 475.9 302.1Q474.3 300.7 474.3 298.7L474.3 298.7Q474.3 296.7 475.9 295.2Q477.4 293.8 479.6 293.8L479.6 293.8Q481.7 293.8 483.3 295.2Q484.8 296.7 484.8 298.7L484.8 298.7Q484.8 300.7 483.3 302.1Q481.7 303.6 479.6 303.6ZM524.5 356.1L514.9 356.1L514.9 337.4L514.6 337.4Q513.9 338.9 512.6 340.3Q511.4 341.7 509.4 342.6Q507.5 343.6 504.7 343.6L504.7 343.6Q500.7 343.6 497.5 341.5Q494.2 339.5 492.4 335.4Q490.5 331.4 490.5 325.6L490.5 325.6Q490.5 319.6 492.4 315.6Q494.4 311.6 497.6 309.6Q500.8 307.6 504.6 307.6L504.6 307.6Q507.6 307.6 509.5 308.6Q511.5 309.6 512.7 311.1Q513.9 312.5 514.6 314.0L514.6 314.0L515.0 314.0L515.0 308.1L524.5 308.1L524.5 356.1ZM507.7 335.9L507.7 335.9Q510.1 335.9 511.7 334.6Q513.3 333.3 514.2 331.0Q515.1 328.7 515.1 325.5L515.1 325.5Q515.1 322.4 514.2 320.1Q513.3 317.8 511.7 316.6Q510.1 315.3 507.7 315.3L507.7 315.3Q505.3 315.3 503.7 316.6Q502.1 317.9 501.2 320.2Q500.4 322.5 500.4 325.5L500.4 325.5Q500.4 328.6 501.2 330.9Q502.1 333.3 503.7 334.6Q505.3 335.9 507.7 335.9ZM547.7 356.8L547.7 356.8Q543.0 356.8 539.6 355.5Q536.3 354.3 534.3 352.0Q532.3 349.8 531.7 347.1L531.7 347.1L540.7 345.9Q541.1 346.9 542.0 347.8Q542.9 348.8 544.3 349.3Q545.8 349.9 547.9 349.9L547.9 349.9Q551.1 349.9 553.1 348.3Q555.2 346.8 555.2 343.2L555.2 343.2L555.2 336.8L554.8 336.8Q554.1 338.3 552.9 339.6Q551.6 340.9 549.6 341.7Q547.6 342.5 544.8 342.5L544.8 342.5Q540.9 342.5 537.7 340.7Q534.4 338.8 532.5 335.1Q530.6 331.3 530.6 325.5L530.6 325.5Q530.6 319.5 532.6 315.6Q534.5 311.6 537.7 309.6Q540.9 307.6 544.8 307.6L544.8 307.6Q547.7 307.6 549.7 308.6Q551.7 309.6 552.9 311.1Q554.1 312.5 554.8 314.0L554.8 314.0L555.1 314.0L555.1 308.1L564.7 308.1L564.7 343.3Q564.7 347.8 562.6 350.8Q560.4 353.8 556.5 355.3Q552.7 356.8 547.7 356.8ZM547.9 335.2L547.9 335.2Q550.2 335.2 551.8 334.1Q553.5 332.9 554.3 330.7Q555.2 328.5 555.2 325.4L555.2 325.4Q555.2 322.4 554.4 320.1Q553.5 317.8 551.9 316.6Q550.2 315.3 547.9 315.3L547.9 315.3Q545.5 315.3 543.9 316.6Q542.2 317.9 541.4 320.2Q540.5 322.5 540.5 325.4L540.5 325.4Q540.5 328.5 541.4 330.6Q542.2 332.8 543.9 334.0Q545.5 335.2 547.9 335.2ZM571.5 296.5L578.4 296.5L578.4 314.1L571.5 314.1L571.5 296.5ZM614.2 318.0L614.2 318.0L605.4 318.6Q605.1 317.5 604.4 316.5Q603.6 315.6 602.4 315.1Q601.2 314.5 599.5 314.5L599.5 314.5Q597.3 314.5 595.7 315.4Q594.2 316.4 594.2 318.0L594.2 318.0Q594.2 319.2 595.2 320.1Q596.2 320.9 598.6 321.5L598.6 321.5L604.9 322.7Q610.0 323.8 612.5 326.1Q615.0 328.4 615.0 332.2L615.0 332.2Q615.0 335.6 613.0 338.2Q611.0 340.8 607.5 342.2Q604.0 343.7 599.5 343.7L599.5 343.7Q592.6 343.7 588.5 340.8Q584.4 337.9 583.6 332.9L583.6 332.9L593.2 332.4Q593.6 334.5 595.3 335.6Q596.9 336.7 599.5 336.7L599.5 336.7Q602.1 336.7 603.6 335.7Q605.2 334.7 605.2 333.2L605.2 333.2Q605.2 331.8 604.1 331.0Q603.0 330.1 600.7 329.7L600.7 329.7L594.7 328.5Q589.6 327.5 587.1 324.9Q584.6 322.4 584.6 318.5L584.6 318.5Q584.6 315.1 586.4 312.7Q588.2 310.3 591.6 309.0Q594.9 307.6 599.4 307.6L599.4 307.6Q606.0 307.6 609.8 310.4Q613.6 313.2 614.2 318.0Z M650.1 343L640.3 343L640.3 296.5L658.6 296.5Q663.9 296.5 667.6 298.5Q671.4 300.5 673.3 304.0Q675.3 307.6 675.3 312.2L675.3 312.2Q675.3 316.9 673.3 320.4Q671.3 324.0 667.5 325.9Q663.7 327.9 658.4 327.9L658.4 327.9L646.7 327.9L646.7 320.0L656.8 320.0Q659.6 320.0 661.5 319.0Q663.3 318.0 664.2 316.3Q665.2 314.5 665.2 312.2L665.2 312.2Q665.2 309.9 664.2 308.2Q663.3 306.4 661.5 305.5Q659.6 304.5 656.7 304.5L656.7 304.5L650.1 304.5L650.1 343ZM696.4 343.7L696.4 343.7Q691.1 343.7 687.2 341.4Q683.4 339.2 681.3 335.1Q679.2 331.0 679.2 325.7L679.2 325.7Q679.2 320.3 681.3 316.2Q683.4 312.2 687.2 309.9Q691.1 307.6 696.4 307.6L696.4 307.6Q701.7 307.6 705.5 309.9Q709.4 312.2 711.5 316.2Q713.6 320.3 713.6 325.7L713.6 325.7Q713.6 331.0 711.5 335.1Q709.4 339.2 705.5 341.4Q701.7 343.7 696.4 343.7ZM696.4 336.2L696.4 336.2Q698.8 336.2 700.5 334.8Q702.1 333.4 702.9 331.0Q703.7 328.7 703.7 325.6L703.7 325.6Q703.7 322.6 702.9 320.2Q702.1 317.8 700.5 316.4Q698.8 315.0 696.4 315.0L696.4 315.0Q694.0 315.0 692.4 316.4Q690.7 317.8 689.9 320.2Q689.0 322.6 689.0 325.6L689.0 325.6Q689.0 328.7 689.9 331.0Q690.7 333.4 692.4 334.8Q694.0 336.2 696.4 336.2ZM729.3 343L719.6 343L719.6 308.1L729.0 308.1L729.0 314.2L729.3 314.2Q730.3 310.9 732.5 309.3Q734.8 307.6 737.7 307.6L737.7 307.6Q738.4 307.6 739.3 307.7Q740.1 307.8 740.8 307.9L740.8 307.9L740.8 316.5Q740.1 316.3 738.9 316.2Q737.7 316 736.7 316L736.7 316Q734.5 316 732.9 316.9Q731.2 317.8 730.2 319.5Q729.3 321.1 729.3 323.3L729.3 323.3L729.3 343ZM744.7 308.1L765.7 308.1L765.7 315.4L744.7 315.4L744.7 308.1ZM749.5 333.5L749.5 299.7L759.2 299.7L759.2 332.3Q759.2 333.6 759.6 334.4Q760.0 335.1 760.7 335.4Q761.5 335.7 762.4 335.7L762.4 335.7Q763.1 335.7 763.8 335.6Q764.5 335.4 764.8 335.4L764.8 335.4L766.4 342.6Q765.6 342.8 764.3 343.1Q763.0 343.4 761.1 343.5L761.1 343.5Q757.6 343.6 755.0 342.5Q752.4 341.5 750.9 339.2Q749.5 337.0 749.5 333.5L749.5 333.5ZM768.9 308.1L790.5 308.1L790.5 315.4L768.9 315.4L768.9 308.1ZM783.5 343L773.9 343L773.9 305.6Q773.9 301.8 775.4 299.3Q776.8 296.8 779.4 295.5Q782.0 294.3 785.3 294.3L785.3 294.3Q787.5 294.3 789.4 294.6Q791.2 295.0 792.2 295.2L792.2 295.2L790.4 302.5Q789.9 302.3 789.0 302.2Q788.2 302 787.3 302L787.3 302Q785.2 302 784.4 303.0Q783.5 304.0 783.5 305.8L783.5 305.8L783.5 343ZM810.6 343.7L810.6 343.7Q805.3 343.7 801.5 341.4Q797.6 339.2 795.5 335.1Q793.4 331.0 793.4 325.7L793.4 325.7Q793.4 320.3 795.5 316.2Q797.6 312.2 801.5 309.9Q805.3 307.6 810.6 307.6L810.6 307.6Q815.9 307.6 819.8 309.9Q823.6 312.2 825.7 316.2Q827.8 320.3 827.8 325.7L827.8 325.7Q827.8 331.0 825.7 335.1Q823.6 339.2 819.8 341.4Q815.9 343.7 810.6 343.7ZM810.7 336.2L810.7 336.2Q813.1 336.2 814.7 334.8Q816.3 333.4 817.1 331.0Q818.0 328.7 818.0 325.6L818.0 325.6Q818.0 322.6 817.1 320.2Q816.3 317.8 814.7 316.4Q813.1 315.0 810.7 315.0L810.7 315.0Q808.2 315.0 806.6 316.4Q804.9 317.8 804.1 320.2Q803.3 322.6 803.3 325.6L803.3 325.6Q803.3 328.7 804.1 331.0Q804.9 333.4 806.6 334.8Q808.2 336.2 810.7 336.2ZM833.8 296.5L843.5 296.5L843.5 343L833.8 343L833.8 296.5ZM860.6 343L850.9 343L850.9 308.1L860.6 308.1L860.6 343ZM855.7 303.6L855.7 303.6Q853.6 303.6 852.1 302.1Q850.5 300.7 850.5 298.7L850.5 298.7Q850.5 296.7 852.1 295.2Q853.6 293.8 855.7 293.8L855.7 293.8Q857.9 293.8 859.4 295.2Q861.0 296.7 861.0 298.7L861.0 298.7Q861.0 300.7 859.4 302.1Q857.9 303.6 855.7 303.6ZM883.7 343.7L883.7 343.7Q878.4 343.7 874.6 341.4Q870.7 339.2 868.7 335.1Q866.6 331.0 866.6 325.7L866.6 325.7Q866.6 320.3 868.7 316.2Q870.7 312.2 874.6 309.9Q878.4 307.6 883.7 307.6L883.7 307.6Q889.0 307.6 892.9 309.9Q896.7 312.2 898.8 316.2Q900.9 320.3 900.9 325.7L900.9 325.7Q900.9 331.0 898.8 335.1Q896.7 339.2 892.9 341.4Q889.0 343.7 883.7 343.7ZM883.8 336.2L883.8 336.2Q886.2 336.2 887.8 334.8Q889.4 333.4 890.3 331.0Q891.1 328.7 891.1 325.6L891.1 325.6Q891.1 322.6 890.3 320.2Q889.4 317.8 887.8 316.4Q886.2 315.0 883.8 315.0L883.8 315.0Q881.4 315.0 879.7 316.4Q878.1 317.8 877.2 320.2Q876.4 322.6 876.4 325.6L876.4 325.6Q876.4 328.7 877.2 331.0Q878.1 333.4 879.7 334.8Q881.4 336.2 883.8 336.2ZM912.6 343.6L912.6 343.6Q910.3 343.6 908.7 342.0Q907.1 340.4 907.1 338.1L907.1 338.1Q907.1 335.9 908.7 334.3Q910.3 332.7 912.6 332.7L912.6 332.7Q914.8 332.7 916.4 334.3Q918.0 335.9 918.0 338.1L918.0 338.1Q918.0 339.6 917.3 340.9Q916.5 342.1 915.3 342.9Q914.1 343.6 912.6 343.6Z "/></g></svg>