<svg width="1280" height="640" viewBox="0 0 1280 640" xmlns="http://www.w3.org/2000/svg"><mask id="satori_om-id"><rect x="0" y="0" width="1280" height="640" fill="#fff"/></mask><rect x="0" y="0" width="1280" height="640" fill="hsl(0, 0%, 13%)"/><mask id="satori_om-id-0"><rect x="42" y="42" width="234" height="48" fill="#fff"/></mask><mask id="satori_om-id-0-0"><rect x="42" y="50" width="32" height="32" fill="#fff"/></mask><rect x="42" y="50" width="32" height="32" fill="white"/><mask id="satori_om-id-0-1"><rect x="82" y="42" width="194" height="48" fill="#fff"/></mask><path fill="white" d="M82.9 58.9L96.0 58.9L96.0 63.5L82.9 63.5L82.9 58.9ZM85.9 74.8L85.9 53.7L91.9 53.7L91.9 74.0Q91.9 74.9 92.2 75.3Q92.4 75.8 92.9 76.0Q93.3 76.2 94.0 76.2L94.0 76.2Q94.4 76.2 94.8 76.1Q95.2 76.0 95.5 76.0L95.5 76.0L96.4 80.5Q96.0 80.6 95.1 80.8Q94.3 81.0 93.1 81.0L93.1 81.0Q90.9 81.1 89.3 80.5Q87.7 79.8 86.8 78.4Q85.8 77.0 85.9 74.8L85.9 74.8ZM117.5 65.2L117.5 65.2L111.9 65.5Q111.8 64.8 111.3 64.2Q110.9 63.6 110.1 63.3Q109.4 62.9 108.3 62.9L108.3 62.9Q106.9 62.9 105.9 63.5Q105.0 64.1 105.0 65.1L105.0 65.1Q105.0 65.9 105.6 66.4Q106.2 67.0 107.7 67.3L107.7 67.3L111.7 68.1Q114.9 68.7 116.4 70.2Q118.0 71.6 118.0 74.0L118.0 74.0Q118.0 76.1 116.7 77.8Q115.5 79.4 113.3 80.3Q111.1 81.2 108.3 81.2L108.3 81.2Q103.9 81.2 101.4 79.4Q98.8 77.6 98.4 74.4L98.4 74.4L104.3 74.1Q104.6 75.4 105.6 76.1Q106.7 76.8 108.3 76.8L108.3 76.8Q109.9 76.8 110.8 76.2Q111.8 75.6 111.8 74.6L111.8 74.6Q111.8 73.8 111.1 73.2Q110.5 72.7 109.0 72.4L109.0 72.4L105.3 71.7Q102.1 71.0 100.5 69.5Q99.0 67.9 99.0 65.4L99.0 65.4Q99.0 63.3 100.1 61.8Q101.2 60.3 103.3 59.5Q105.4 58.6 108.2 58.6L108.2 58.6Q112.3 58.6 114.7 60.4Q117.1 62.1 117.5 65.2ZM135.5 71.5L135.5 71.5L135.5 58.9L141.5 58.9L141.5 80.8L135.7 80.8L135.7 76.8L135.5 76.8Q134.8 78.7 133.0 79.9Q131.3 81.0 128.9 81.0L128.9 81.0Q126.7 81.0 125.0 80.0Q123.4 79.0 122.4 77.2Q121.5 75.4 121.5 72.8L121.5 72.8L121.5 58.9L127.5 58.9L127.5 71.7Q127.6 73.7 128.6 74.8Q129.6 75.9 131.3 75.9L131.3 75.9Q132.4 75.9 133.4 75.4Q134.3 74.9 134.9 73.9Q135.5 72.9 135.5 71.5ZM152.1 80.8L146.0 80.8L146.0 58.9L152.1 58.9L152.1 80.8ZM149.1 56.1L149.1 56.1Q147.7 56.1 146.8 55.2Q145.8 54.3 145.8 53.1L145.8 53.1Q145.8 51.8 146.8 50.9Q147.7 50.0 149.1 50.0L149.1 50.0Q150.4 50.0 151.4 50.9Q152.3 51.8 152.3 53.1L152.3 53.1Q152.3 54.3 151.4 55.2Q150.4 56.1 149.1 56.1ZM177.1 88.9L171.0 88.9L171.0 77.3L170.8 77.3Q170.4 78.2 169.6 79.1Q168.9 79.9 167.6 80.5Q166.4 81.1 164.6 81.1L164.6 81.1Q162.2 81.1 160.1 79.8Q158.1 78.5 157.0 76.0Q155.8 73.5 155.8 69.9L155.8 69.9Q155.8 66.1 157.0 63.6Q158.2 61.1 160.2 59.9Q162.2 58.6 164.6 58.6L164.6 58.6Q166.5 58.6 167.7 59.3Q168.9 59.9 169.7 60.8Q170.4 61.7 170.8 62.6L170.8 62.6L171.1 62.6L171.1 58.9L177.1 58.9L177.1 88.9ZM166.6 76.3L166.6 76.3Q168.0 76.3 169.0 75.5Q170.1 74.7 170.6 73.2Q171.1 71.8 171.1 69.8L171.1 69.8Q171.1 67.9 170.6 66.5Q170.1 65.0 169.0 64.2Q168.0 63.5 166.6 63.5L166.6 63.5Q165.1 63.5 164.0 64.3Q163.0 65.1 162.5 66.5Q162.0 68.0 162.0 69.8L162.0 69.8Q162.0 71.7 162.5 73.2Q163.0 74.7 164.1 75.5Q165.1 76.3 166.6 76.3ZM191.4 89.4L191.4 89.4Q188.5 89.4 186.4 88.6Q184.3 87.8 183.0 86.4Q181.8 85.0 181.4 83.3L181.4 83.3L187.0 82.6Q187.3 83.2 187.8 83.8Q188.4 84.3 189.3 84.7Q190.2 85.0 191.6 85.0L191.6 85.0Q193.5 85.0 194.8 84.1Q196.1 83.1 196.1 80.9L196.1 80.9L196.1 76.9L195.8 76.9Q195.4 77.8 194.6 78.6Q193.9 79.4 192.6 79.9Q191.4 80.4 189.6 80.4L189.6 80.4Q187.2 80.4 185.2 79.3Q183.1 78.2 182.0 75.8Q180.8 73.4 180.8 69.8L180.8 69.8Q180.8 66.1 182.0 63.6Q183.2 61.1 185.2 59.9Q187.2 58.6 189.6 58.6L189.6 58.6Q191.4 58.6 192.7 59.3Q193.9 59.9 194.7 60.8Q195.4 61.7 195.8 62.6L195.8 62.6L196.1 62.6L196.1 58.9L202.1 58.9L202.1 81.0Q202.1 83.7 200.7 85.6Q199.3 87.5 196.9 88.4Q194.5 89.4 191.4 89.4ZM191.5 75.9L191.5 75.9Q193.0 75.9 194.0 75.2Q195.0 74.4 195.6 73.1Q196.1 71.7 196.1 69.8L196.1 69.8Q196.1 67.9 195.6 66.4Q195.0 65.0 194.0 64.2Q193.0 63.5 191.5 63.5L191.5 63.5Q190.0 63.5 189.0 64.3Q188.0 65.1 187.5 66.5Q186.9 67.9 186.9 69.8L186.9 69.8Q186.9 71.7 187.5 73.0Q188.0 74.4 189.0 75.1Q190.0 75.9 191.5 75.9ZM210.1 81.1L210.1 81.1Q208.7 81.1 207.7 80.1Q206.7 79.1 206.7 77.7L206.7 77.7Q206.7 76.3 207.7 75.3Q208.7 74.3 210.1 74.3L210.1 74.3Q211.5 74.3 212.5 75.3Q213.5 76.3 213.5 77.7L213.5 77.7Q213.5 78.6 213.1 79.4Q212.6 80.2 211.8 80.7Q211.0 81.1 210.1 81.1ZM224.2 80.8L218.2 80.8L218.2 58.9L223.9 58.9L223.9 62.8L224.2 62.8Q224.9 60.9 226.5 59.8Q228.1 58.6 230.3 58.6L230.3 58.6Q232.5 58.6 234.1 59.8Q235.7 60.9 236.2 62.8L236.2 62.8L236.4 62.8Q237.1 60.9 238.8 59.8Q240.6 58.6 243.0 58.6L243.0 58.6Q246.1 58.6 248.0 60.6Q249.9 62.5 249.9 66.1L249.9 66.1L249.9 80.8L243.8 80.8L243.8 67.3Q243.8 65.5 242.9 64.5Q241.9 63.6 240.5 63.6L240.5 63.6Q238.8 63.6 237.9 64.7Q237.0 65.7 237.0 67.4L237.0 67.4L237.0 80.8L231.1 80.8L231.1 67.1Q231.1 65.5 230.2 64.6Q229.3 63.6 227.8 63.6L227.8 63.6Q226.8 63.6 226.0 64.1Q225.2 64.6 224.7 65.5Q224.2 66.4 224.2 67.7L224.2 67.7L224.2 80.8ZM264.3 81.2L264.3 81.2Q260.9 81.2 258.5 79.8Q256.1 78.4 254.8 75.9Q253.4 73.4 253.4 69.9L253.4 69.9Q253.4 66.6 254.8 64.0Q256.1 61.5 258.4 60.1Q260.8 58.6 264.0 58.6L264.0 58.6Q266.2 58.6 268.1 59.3Q269.9 60.0 271.3 61.4Q272.7 62.8 273.5 64.9Q274.3 66.9 274.3 69.7L274.3 69.7L274.3 71.4L255.9 71.4L255.9 67.6L268.6 67.6Q268.6 66.3 268.0 65.3Q267.5 64.3 266.4 63.7Q265.4 63.2 264.1 63.2L264.1 63.2Q262.7 63.2 261.7 63.8Q260.6 64.4 260.0 65.5Q259.4 66.5 259.4 67.8L259.4 67.8L259.4 71.4Q259.4 73.0 260.0 74.2Q260.6 75.4 261.7 76.0Q262.8 76.7 264.4 76.7L264.4 76.7Q265.4 76.7 266.2 76.4Q267.1 76.1 267.7 75.5Q268.2 75.0 268.6 74.1L268.6 74.1L274.2 74.5Q273.7 76.5 272.4 78.0Q271.1 79.5 269.0 80.3Q267.0 81.2 264.3 81.2Z "/><mask id="satori_om-id-1"><rect x="294" y="250" width="693" height="140" fill="#fff"/></mask><rect x="294" y="250" width="693" height="140" fill="white"/><path fill="black" d="M369.5 305.8L356.1 305.8L356.1 298.2L392.0 298.2L392.0 305.8L378.6 305.8L378.6 341.8L369.5 341.8L369.5 305.8ZM422.5 318.4L422.5 318.4L414.2 318.9Q414.0 317.9 413.3 317.0Q412.6 316.1 411.5 315.6Q410.3 315.1 408.7 315.1L408.7 315.1Q406.6 315.1 405.2 316.0Q403.7 316.9 403.7 318.3L403.7 318.3Q403.7 319.5 404.7 320.3Q405.6 321.1 407.9 321.6L407.9 321.6L413.8 322.8Q418.6 323.8 420.9 326.0Q423.3 328.1 423.3 331.7L423.3 331.7Q423.3 334.9 421.4 337.3Q419.5 339.8 416.2 341.1Q413.0 342.5 408.7 342.5L408.7 342.5Q402.2 342.5 398.3 339.7Q394.5 337.0 393.8 332.3L393.8 332.3L402.8 331.9Q403.2 333.8 404.7 334.9Q406.3 335.9 408.7 335.9L408.7 335.9Q411.1 335.9 412.6 335.0Q414.0 334.1 414.0 332.6L414.0 332.6Q414.0 331.4 413.0 330.6Q412.0 329.8 409.8 329.3L409.8 329.3L404.2 328.2Q399.4 327.2 397.0 324.9Q394.7 322.5 394.7 318.8L394.7 318.8Q394.7 315.7 396.4 313.4Q398.1 311.1 401.3 309.9Q404.4 308.7 408.6 308.7L408.6 308.7Q414.8 308.7 418.4 311.3Q421.9 313.9 422.5 318.4ZM452.0 327.9L452.0 327.9L452.0 309.1L461.1 309.1L461.1 341.8L452.3 341.8L452.3 335.9L452.0 335.9Q450.9 338.8 448.3 340.5Q445.8 342.2 442.1 342.2L442.1 342.2Q438.8 342.2 436.3 340.8Q433.8 339.3 432.4 336.5Q431.0 333.8 431.0 329.9L431.0 329.9L431.0 309.1L440.1 309.1L440.1 328.3Q440.1 331.2 441.6 332.9Q443.2 334.6 445.7 334.6L445.7 334.6Q447.4 334.6 448.8 333.8Q450.2 333.1 451.1 331.6Q452.0 330.1 452.0 327.9ZM479.4 341.8L470.3 341.8L470.3 309.1L479.4 309.1L479.4 341.8ZM474.9 304.9L474.9 304.9Q472.8 304.9 471.4 303.5Q470.0 302.2 470.0 300.3L470.0 300.3Q470.0 298.4 471.4 297.0Q472.8 295.7 474.9 295.7L474.9 295.7Q476.9 295.7 478.3 297.0Q479.8 298.4 479.8 300.3L479.8 300.3Q479.8 302.2 478.3 303.5Q476.9 304.9 474.9 304.9ZM519.3 354.1L510.3 354.1L510.3 336.6L510.0 336.6Q509.3 337.9 508.2 339.3Q507.0 340.6 505.2 341.5Q503.3 342.4 500.7 342.4L500.7 342.4Q497.0 342.4 493.9 340.4Q490.9 338.5 489.2 334.7Q487.4 331.0 487.4 325.5L487.4 325.5Q487.4 319.9 489.2 316.1Q491.0 312.4 494.0 310.5Q497.1 308.7 500.7 308.7L500.7 308.7Q503.4 308.7 505.3 309.6Q507.1 310.5 508.2 311.9Q509.4 313.3 510.0 314.6L510.0 314.6L510.4 314.6L510.4 309.1L519.3 309.1L519.3 354.1ZM503.6 335.1L503.6 335.1Q505.8 335.1 507.3 333.9Q508.8 332.7 509.6 330.5Q510.4 328.4 510.4 325.5L510.4 325.5Q510.4 322.5 509.6 320.4Q508.8 318.2 507.3 317.1Q505.8 315.9 503.6 315.9L503.6 315.9Q501.3 315.9 499.8 317.1Q498.3 318.3 497.5 320.5Q496.7 322.6 496.7 325.5L496.7 325.5Q496.7 328.3 497.5 330.5Q498.3 332.7 499.8 333.9Q501.3 335.1 503.6 335.1ZM543.3 354.8L543.3 354.8Q538.9 354.8 535.8 353.6Q532.6 352.4 530.8 350.3Q528.9 348.2 528.4 345.7L528.4 345.7L536.8 344.5Q537.1 345.5 538.0 346.4Q538.8 347.2 540.2 347.7Q541.5 348.3 543.5 348.3L543.5 348.3Q546.5 348.3 548.4 346.8Q550.3 345.4 550.3 342.0L550.3 342.0L550.3 336.0L550.0 336.0Q549.4 337.4 548.2 338.6Q547.0 339.8 545.1 340.6Q543.2 341.3 540.6 341.3L540.6 341.3Q536.9 341.3 533.9 339.6Q530.9 337.9 529.1 334.4Q527.4 330.8 527.4 325.4L527.4 325.4Q527.4 319.8 529.2 316.1Q531.0 312.4 534.0 310.5Q537.0 308.7 540.6 308.7L540.6 308.7Q543.4 308.7 545.2 309.6Q547.1 310.5 548.2 311.9Q549.3 313.3 550.0 314.6L550.0 314.6L550.3 314.6L550.3 309.1L559.3 309.1L559.3 342.1Q559.3 346.3 557.3 349.1Q555.2 351.9 551.6 353.4Q548.0 354.8 543.3 354.8ZM543.5 334.5L543.5 334.5Q545.7 334.5 547.2 333.4Q548.8 332.3 549.6 330.3Q550.4 328.2 550.4 325.3L550.4 325.3Q550.4 322.5 549.6 320.4Q548.8 318.2 547.2 317.1Q545.7 315.9 543.5 315.9L543.5 315.9Q541.3 315.9 539.7 317.1Q538.2 318.3 537.4 320.4Q536.6 322.6 536.6 325.3L536.6 325.3Q536.6 328.2 537.4 330.2Q538.2 332.3 539.7 333.4Q541.3 334.5 543.5 334.5ZM567.9 298.2L574.4 298.2L574.4 314.8L567.9 314.8L567.9 298.2ZM610.3 318.4L610.3 318.4L602.0 318.9Q601.8 317.9 601.1 317.0Q600.4 316.1 599.3 315.6Q598.1 315.1 596.5 315.1L596.5 315.1Q594.4 315.1 593.0 316.0Q591.5 316.9 591.5 318.3L591.5 318.3Q591.5 319.5 592.5 320.3Q593.4 321.1 595.7 321.6L595.7 321.6L601.6 322.8Q606.4 323.8 608.7 326.0Q611.1 328.1 611.1 331.7L611.1 331.7Q611.1 334.9 609.2 337.3Q607.3 339.8 604.0 341.1Q600.8 342.5 596.5 342.5L596.5 342.5Q590.0 342.5 586.1 339.7Q582.3 337.0 581.6 332.3L581.6 332.3L590.6 331.9Q591.0 333.8 592.5 334.9Q594.1 335.9 596.5 335.9L596.5 335.9Q598.9 335.9 600.4 335.0Q601.8 334.1 601.8 332.6L601.8 332.6Q601.8 331.4 600.8 330.6Q599.8 329.8 597.6 329.3L597.6 329.3L592.0 328.2Q587.2 327.2 584.9 324.9Q582.5 322.5 582.5 318.8L582.5 318.8Q582.5 315.7 584.2 313.4Q585.9 311.1 589.1 309.9Q592.2 308.7 596.4 308.7L596.4 308.7Q602.6 308.7 606.2 311.3Q609.7 313.9 610.3 318.4Z M648.5 341.8L639.3 341.8L639.3 298.2L656.5 298.2Q661.5 298.2 665.0 300.1Q668.5 302.0 670.3 305.3Q672.2 308.6 672.2 313.0L672.2 313.0Q672.2 317.3 670.3 320.6Q668.4 324.0 664.9 325.8Q661.3 327.7 656.3 327.7L656.3 327.7L645.3 327.7L645.3 320.3L654.8 320.3Q657.5 320.3 659.2 319.4Q660.9 318.4 661.8 316.8Q662.7 315.1 662.7 313.0L662.7 313.0Q662.7 310.8 661.8 309.2Q660.9 307.5 659.2 306.6Q657.4 305.7 654.8 305.7L654.8 305.7L648.5 305.7L648.5 341.8ZM694.2 342.5L694.2 342.5Q689.3 342.5 685.7 340.3Q682.1 338.2 680.1 334.4Q678.1 330.6 678.1 325.6L678.1 325.6Q678.1 320.5 680.1 316.7Q682.1 312.9 685.7 310.8Q689.3 308.7 694.2 308.7L694.2 308.7Q699.2 308.7 702.8 310.8Q706.4 312.9 708.4 316.7Q710.3 320.5 710.3 325.6L710.3 325.6Q710.3 330.6 708.4 334.4Q706.4 338.2 702.8 340.3Q699.2 342.5 694.2 342.5ZM694.3 335.4L694.3 335.4Q696.5 335.4 698.1 334.1Q699.6 332.8 700.3 330.6Q701.1 328.4 701.1 325.5L701.1 325.5Q701.1 322.7 700.3 320.4Q699.6 318.2 698.1 316.9Q696.5 315.6 694.3 315.6L694.3 315.6Q692.0 315.6 690.5 316.9Q688.9 318.2 688.1 320.4Q687.4 322.7 687.4 325.5L687.4 325.5Q687.4 328.4 688.1 330.6Q688.9 332.8 690.5 334.1Q692.0 335.4 694.3 335.4ZM727.3 341.8L718.3 341.8L718.3 309.1L727.1 309.1L727.1 314.8L727.4 314.8Q728.3 311.8 730.4 310.2Q732.5 308.6 735.3 308.6L735.3 308.6Q736.0 308.6 736.7 308.7Q737.5 308.8 738.1 308.9L738.1 308.9L738.1 317.0Q737.5 316.8 736.4 316.7Q735.2 316.5 734.3 316.5L734.3 316.5Q732.3 316.5 730.7 317.4Q729.2 318.2 728.3 319.8Q727.3 321.3 727.3 323.3L727.3 323.3L727.3 341.8ZM744.1 309.1L763.8 309.1L763.8 315.9L744.1 315.9L744.1 309.1ZM748.6 333.0L748.6 301.3L757.7 301.3L757.7 331.8Q757.7 333.0 758.1 333.7Q758.5 334.4 759.1 334.7Q759.8 335.0 760.8 335.0L760.8 335.0Q761.4 335.0 762.0 334.8Q762.7 334.7 763.0 334.7L763.0 334.7L764.4 341.4Q763.8 341.6 762.5 341.9Q761.3 342.2 759.5 342.3L759.5 342.3Q756.2 342.4 753.8 341.4Q751.3 340.4 750.0 338.3Q748.6 336.2 748.6 333.0L748.6 333.0ZM769.1 309.1L789.3 309.1L789.3 315.9L769.1 315.9L769.1 309.1ZM782.8 341.8L773.8 341.8L773.8 306.7Q773.8 303.2 775.2 300.8Q776.6 298.5 779.0 297.3Q781.4 296.1 784.5 296.1L784.5 296.1Q786.6 296.1 788.3 296.5Q790.1 296.8 790.9 297.0L790.9 297.0L789.3 303.8Q788.8 303.7 788.0 303.5Q787.2 303.4 786.4 303.4L786.4 303.4Q784.4 303.4 783.6 304.3Q782.8 305.2 782.8 306.9L782.8 306.9L782.8 341.8ZM810.5 342.5L810.5 342.5Q805.6 342.5 801.9 340.3Q798.3 338.2 796.4 334.4Q794.4 330.6 794.4 325.6L794.4 325.6Q794.4 320.5 796.4 316.7Q798.3 312.9 801.9 310.8Q805.6 308.7 810.5 308.7L810.5 308.7Q815.5 308.7 819.1 310.8Q822.7 312.9 824.7 316.7Q826.6 320.5 826.6 325.6L826.6 325.6Q826.6 330.6 824.7 334.4Q822.7 338.2 819.1 340.3Q815.5 342.5 810.5 342.5ZM810.6 335.4L810.6 335.4Q812.8 335.4 814.3 334.1Q815.8 332.8 816.6 330.6Q817.4 328.4 817.4 325.5L817.4 325.5Q817.4 322.7 816.6 320.4Q815.8 318.2 814.3 316.9Q812.8 315.6 810.6 315.6L810.6 315.6Q808.3 315.6 806.7 316.9Q805.2 318.2 804.4 320.4Q803.6 322.7 803.6 325.5L803.6 325.5Q803.6 328.4 804.4 330.6Q805.2 332.8 806.7 334.1Q808.3 335.4 810.6 335.4ZM834.6 298.2L843.6 298.2L843.6 341.8L834.6 341.8L834.6 298.2ZM862.0 341.8L852.9 341.8L852.9 309.1L862.0 309.1L862.0 341.8ZM857.4 304.9L857.4 304.9Q855.4 304.9 854.0 303.5Q852.5 302.2 852.5 300.3L852.5 300.3Q852.5 298.4 854.0 297.0Q855.4 295.7 857.4 295.7L857.4 295.7Q859.5 295.7 860.9 297.0Q862.3 298.4 862.3 300.3L862.3 300.3Q862.3 302.2 860.9 303.5Q859.5 304.9 857.4 304.9ZM886.0 342.5L886.0 342.5Q881.0 342.5 877.4 340.3Q873.8 338.2 871.8 334.4Q869.9 330.6 869.9 325.6L869.9 325.6Q869.9 320.5 871.8 316.7Q873.8 312.9 877.4 310.8Q881.0 308.7 886.0 308.7L886.0 308.7Q890.9 308.7 894.6 310.8Q898.2 312.9 900.1 316.7Q902.1 320.5 902.1 325.6L902.1 325.6Q902.1 330.6 900.1 334.4Q898.2 338.2 894.6 340.3Q890.9 342.5 886.0 342.5ZM886.0 335.4L886.0 335.4Q888.3 335.4 889.8 334.1Q891.3 332.8 892.1 330.6Q892.9 328.4 892.9 325.5L892.9 325.5Q892.9 322.7 892.1 320.4Q891.3 318.2 889.8 316.9Q888.3 315.6 886.0 315.6L886.0 315.6Q883.7 315.6 882.2 316.9Q880.7 318.2 879.9 320.4Q879.1 322.7 879.1 325.5L879.1 325.5Q879.1 328.4 879.9 330.6Q880.7 332.8 882.2 334.1Q883.7 335.4 886.0 335.4ZM915.3 342.4L915.3 342.4Q913.2 342.4 911.7 340.9Q910.2 339.4 910.2 337.3L910.2 337.3Q910.2 335.2 911.7 333.7Q913.2 332.2 915.3 332.2L915.3 332.2Q917.4 332.2 918.9 333.7Q920.4 335.2 920.4 337.3L920.4 337.3Q920.4 338.7 919.7 339.8Q919.0 341.0 917.9 341.7Q916.7 342.4 915.3 342.4Z "/></svg>