<svg width="800" height="400" viewBox="0 0 800 400" xmlns="http://www.w3.org/2000/svg"><mask id="satori_om-id"><rect x="0" y="0" width="800" height="400" fill="#fff"/></mask><rect x="0" y="0" width="800" height="400" fill="white"/><mask id="satori_om-id-0"><rect x="42" y="42" width="180" height="24" fill="#fff"/></mask><mask id="satori_om-id-0-0"><rect x="42" y="42" width="24" height="24" fill="#fff"/></mask><rect x="42" y="42" width="24" height="24" fill="black"/><mask id="satori_om-id-0-1"><rect x="74" y="42" width="148" height="24" fill="#fff"/></mask><path fill="black" d="M79.2 60.9L79.2 60.9Q78.0 60.9 77.0 60.3Q76.0 59.6 75.4 58.4Q74.8 57.1 74.8 55.3L74.8 55.3Q74.8 53.4 75.4 52.2Q76.0 50.9 77.0 50.3Q78.0 49.7 79.2 49.7L79.2 49.7Q80.1 49.7 80.8 50.0Q81.4 50.3 81.7 50.7Q82.1 51.2 82.3 51.6L82.3 51.6L82.4 51.6L82.4 46.2L85.4 46.2L85.4 60.7L82.5 60.7L82.5 59.0L82.3 59.0Q82.1 59.4 81.7 59.9Q81.3 60.3 80.7 60.6Q80.1 60.9 79.2 60.9ZM80.2 58.5L80.2 58.5Q80.9 58.5 81.4 58.1Q81.9 57.7 82.2 57.0Q82.5 56.2 82.5 55.3L82.5 55.3Q82.5 54.3 82.2 53.6Q81.9 52.9 81.4 52.5Q80.9 52.1 80.2 52.1L80.2 52.1Q79.4 52.1 78.9 52.5Q78.4 52.9 78.2 53.6Q77.9 54.3 77.9 55.3L77.9 55.3Q77.9 56.2 78.2 56.9Q78.4 57.7 78.9 58.1Q79.4 58.5 80.2 58.5ZM92.5 60.9L92.5 60.9Q90.9 60.9 89.7 60.2Q88.5 59.5 87.8 58.3Q87.2 57.0 87.2 55.3L87.2 55.3Q87.2 53.6 87.8 52.4Q88.5 51.1 89.7 50.4Q90.9 49.7 92.5 49.7L92.5 49.7Q94.2 49.7 95.4 50.4Q96.6 51.1 97.2 52.4Q97.9 53.6 97.9 55.3L97.9 55.3Q97.9 57.0 97.2 58.3Q96.6 59.5 95.4 60.2Q94.2 60.9 92.5 60.9ZM92.5 58.6L92.5 58.6Q93.3 58.6 93.8 58.2Q94.3 57.7 94.6 57.0Q94.8 56.2 94.8 55.3L94.8 55.3Q94.8 54.3 94.6 53.6Q94.3 52.8 93.8 52.4Q93.3 52.0 92.5 52.0L92.5 52.0Q91.8 52.0 91.3 52.4Q90.7 52.8 90.5 53.6Q90.2 54.3 90.2 55.3L90.2 55.3Q90.2 56.2 90.5 57.0Q90.7 57.7 91.3 58.2Q91.8 58.6 92.5 58.6ZM104.5 60.9L104.5 60.9Q102.8 60.9 101.6 60.2Q100.4 59.5 99.7 58.2Q99.1 57.0 99.1 55.3L99.1 55.3Q99.1 53.6 99.8 52.4Q100.4 51.1 101.6 50.4Q102.8 49.7 104.5 49.7L104.5 49.7Q105.9 49.7 107.0 50.2Q108.0 50.7 108.7 51.6Q109.3 52.6 109.3 53.8L109.3 53.8L106.5 53.8Q106.4 53.0 105.9 52.5Q105.3 52.0 104.5 52.0L104.5 52.0Q103.8 52.0 103.3 52.4Q102.8 52.8 102.5 53.5Q102.2 54.2 102.2 55.3L102.2 55.3Q102.2 56.3 102.5 57.0Q102.8 57.8 103.3 58.2Q103.8 58.5 104.5 58.5L104.5 58.5Q105.0 58.5 105.4 58.3Q105.9 58.1 106.1 57.7Q106.4 57.3 106.5 56.7L106.5 56.7L109.3 56.7Q109.3 58.0 108.7 58.9Q108.1 59.9 107.0 60.4Q105.9 60.9 104.5 60.9ZM120.0 52.9L120.0 52.9L117.3 53.1Q117.2 52.7 117.0 52.4Q116.7 52.2 116.4 52.0Q116.0 51.8 115.5 51.8L115.5 51.8Q114.8 51.8 114.3 52.1Q113.8 52.4 113.8 52.9L113.8 52.9Q113.8 53.3 114.1 53.6Q114.4 53.8 115.2 54.0L115.2 54.0L117.1 54.4Q118.7 54.7 119.5 55.4Q120.3 56.2 120.3 57.3L120.3 57.3Q120.3 58.4 119.7 59.2Q119.0 60.0 118.0 60.5Q116.9 60.9 115.4 60.9L115.4 60.9Q113.3 60.9 112.0 60.0Q110.7 59.1 110.5 57.6L110.5 57.6L113.5 57.4Q113.6 58.1 114.1 58.4Q114.6 58.8 115.4 58.8L115.4 58.8Q116.2 58.8 116.7 58.4Q117.2 58.1 117.2 57.6L117.2 57.6Q117.2 57.2 116.9 57.0Q116.5 56.7 115.8 56.6L115.8 56.6L113.9 56.2Q112.3 55.9 111.6 55.1Q110.8 54.3 110.8 53.1L110.8 53.1Q110.8 52.0 111.4 51.3Q111.9 50.5 113.0 50.1Q114.0 49.7 115.4 49.7L115.4 49.7Q117.5 49.7 118.7 50.5Q119.9 51.4 120.0 52.9ZM123.7 60.9L123.7 60.9Q123.0 60.9 122.5 60.4Q122.0 59.9 122.0 59.2L122.0 59.2Q122.0 58.5 122.5 58.0Q123.0 57.5 123.7 57.5L123.7 57.5Q124.3 57.5 124.9 58.0Q125.4 58.5 125.4 59.2L125.4 59.2Q125.4 59.7 125.1 60.1Q124.9 60.4 124.5 60.7Q124.1 60.9 123.7 60.9ZM126.8 49.8L133.3 49.8L133.3 52.1L126.8 52.1L126.8 49.8ZM128.2 57.8L128.2 47.2L131.3 47.2L131.3 57.4Q131.3 57.8 131.4 58.0Q131.5 58.2 131.8 58.3Q132.0 58.4 132.3 58.4L132.3 58.4Q132.5 58.4 132.7 58.4Q132.9 58.4 133.0 58.3L133.0 58.3L133.5 60.6Q133.3 60.7 132.9 60.8Q132.5 60.8 131.9 60.9L131.9 60.9Q130.8 60.9 130.0 60.6Q129.1 60.2 128.7 59.5Q128.2 58.8 128.2 57.8L128.2 57.8ZM143.9 52.9L143.9 52.9L141.1 53.1Q141.1 52.7 140.8 52.4Q140.6 52.2 140.2 52.0Q139.8 51.8 139.3 51.8L139.3 51.8Q138.6 51.8 138.1 52.1Q137.6 52.4 137.6 52.9L137.6 52.9Q137.6 53.3 137.9 53.6Q138.3 53.8 139.0 54.0L139.0 54.0L141.0 54.4Q142.6 54.7 143.4 55.4Q144.1 56.2 144.1 57.3L144.1 57.3Q144.1 58.4 143.5 59.2Q142.9 60.0 141.8 60.5Q140.7 60.9 139.3 60.9L139.3 60.9Q137.1 60.9 135.8 60.0Q134.6 59.1 134.3 57.6L134.3 57.6L137.3 57.4Q137.4 58.1 138.0 58.4Q138.5 58.8 139.3 58.8L139.3 58.8Q140.1 58.8 140.6 58.4Q141.1 58.1 141.1 57.6L141.1 57.6Q141.1 57.2 140.7 57.0Q140.4 56.7 139.7 56.6L139.7 56.6L137.8 56.2Q136.2 55.9 135.4 55.1Q134.6 54.3 134.6 53.1L134.6 53.1Q134.6 52.0 135.2 51.3Q135.8 50.5 136.8 50.1Q137.9 49.7 139.3 49.7L139.3 49.7Q141.3 49.7 142.5 50.5Q143.7 51.4 143.9 52.9ZM152.7 56.1L152.7 56.1L152.7 49.8L155.8 49.8L155.8 60.7L152.9 60.7L152.9 58.7L152.7 58.7Q152.4 59.7 151.5 60.3Q150.7 60.9 149.4 60.9L149.4 60.9Q148.3 60.9 147.5 60.4Q146.7 59.9 146.2 59.0Q145.7 58.0 145.7 56.8L145.7 56.8L145.7 49.8L148.8 49.8L148.8 56.2Q148.8 57.2 149.3 57.7Q149.8 58.3 150.7 58.3L150.7 58.3Q151.2 58.3 151.7 58.1Q152.2 57.8 152.4 57.3Q152.7 56.8 152.7 56.1ZM160.9 60.7L157.9 60.7L157.9 49.8L160.9 49.8L160.9 60.7ZM159.4 48.4L159.4 48.4Q158.7 48.4 158.2 48.0Q157.7 47.5 157.7 46.9L157.7 46.9Q157.7 46.2 158.2 45.8Q158.7 45.3 159.4 45.3L159.4 45.3Q160.0 45.3 160.5 45.8Q161.0 46.2 161.0 46.9L161.0 46.9Q161.0 47.5 160.5 48.0Q160.0 48.4 159.4 48.4ZM173.2 64.8L170.2 64.8L170.2 59.0L170.1 59.0Q169.9 59.4 169.5 59.9Q169.1 60.3 168.5 60.6Q167.9 60.9 167.0 60.9L167.0 60.9Q165.8 60.9 164.7 60.3Q163.7 59.6 163.2 58.4Q162.6 57.1 162.6 55.3L162.6 55.3Q162.6 53.4 163.2 52.2Q163.8 50.9 164.8 50.3Q165.8 49.7 167.0 49.7L167.0 49.7Q167.9 49.7 168.5 50.0Q169.1 50.3 169.5 50.7Q169.9 51.2 170.1 51.6L170.1 51.6L170.2 51.6L170.2 49.8L173.2 49.8L173.2 64.8ZM168.0 58.5L168.0 58.5Q168.7 58.5 169.2 58.1Q169.7 57.7 170.0 57.0Q170.2 56.2 170.2 55.3L170.2 55.3Q170.2 54.3 170.0 53.6Q169.7 52.9 169.2 52.5Q168.7 52.1 168.0 52.1L168.0 52.1Q167.2 52.1 166.7 52.5Q166.2 52.9 165.9 53.6Q165.7 54.3 165.7 55.3L165.7 55.3Q165.7 56.2 165.9 56.9Q166.2 57.7 166.7 58.1Q167.2 58.5 168.0 58.5ZM180.2 65.0L180.2 65.0Q178.7 65.0 177.7 64.6Q176.7 64.2 176.0 63.5Q175.4 62.9 175.2 62.0L175.2 62.0L178.0 61.6Q178.2 61.9 178.4 62.2Q178.7 62.5 179.2 62.7Q179.6 62.9 180.3 62.9L180.3 62.9Q181.3 62.9 181.9 62.4Q182.6 61.9 182.6 60.8L182.6 60.8L182.6 58.8L182.4 58.8Q182.2 59.2 181.8 59.6Q181.4 60.1 180.8 60.3Q180.2 60.6 179.3 60.6L179.3 60.6Q178.1 60.6 177.1 60.0Q176.1 59.4 175.5 58.2Q174.9 57.1 174.9 55.2L174.9 55.2Q174.9 53.4 175.5 52.1Q176.1 50.9 177.1 50.3Q178.1 49.7 179.3 49.7L179.3 49.7Q180.2 49.7 180.8 50.0Q181.5 50.3 181.8 50.7Q182.2 51.2 182.4 51.6L182.4 51.6L182.5 51.6L182.5 49.8L185.6 49.8L185.6 60.8Q185.6 62.2 184.9 63.2Q184.2 64.1 183.0 64.6Q181.8 65.0 180.2 65.0ZM180.3 58.3L180.3 58.3Q181.0 58.3 181.5 57.9Q182.0 57.6 182.3 56.9Q182.6 56.2 182.6 55.2L182.6 55.2Q182.6 54.3 182.3 53.6Q182.0 52.9 181.5 52.5Q181.0 52.1 180.3 52.1L180.3 52.1Q179.5 52.1 179.0 52.5Q178.5 52.9 178.3 53.6Q178.0 54.3 178.0 55.2L178.0 55.2Q178.0 56.2 178.3 56.9Q178.5 57.5 179.0 57.9Q179.5 58.3 180.3 58.3ZM189.4 60.9L189.4 60.9Q188.7 60.9 188.2 60.4Q187.7 59.9 187.7 59.2L187.7 59.2Q187.7 58.5 188.2 58.0Q188.7 57.5 189.4 57.5L189.4 57.5Q190.1 57.5 190.6 58.0Q191.1 58.5 191.1 59.2L191.1 59.2Q191.1 59.7 190.9 60.1Q190.6 60.4 190.3 60.7Q189.9 60.9 189.4 60.9ZM196.3 60.7L193.3 60.7L193.3 49.8L196.2 49.8L196.2 51.7L196.3 51.7Q196.6 50.8 197.4 50.2Q198.2 49.7 199.3 49.7L199.3 49.7Q200.5 49.7 201.2 50.2Q202.0 50.8 202.3 51.7L202.3 51.7L202.4 51.7Q202.7 50.8 203.6 50.2Q204.5 49.7 205.7 49.7L205.7 49.7Q207.2 49.7 208.2 50.6Q209.1 51.6 209.1 53.4L209.1 53.4L209.1 60.7L206.1 60.7L206.1 54.0Q206.1 53.1 205.6 52.6Q205.1 52.2 204.4 52.2L204.4 52.2Q203.6 52.2 203.1 52.7Q202.7 53.2 202.7 54.1L202.7 54.1L202.7 60.7L199.7 60.7L199.7 53.9Q199.7 53.1 199.3 52.6Q198.8 52.2 198.1 52.2L198.1 52.2Q197.6 52.2 197.2 52.4Q196.8 52.7 196.5 53.1Q196.3 53.6 196.3 54.2L196.3 54.2L196.3 60.7ZM216.2 60.9L216.2 60.9Q214.5 60.9 213.3 60.2Q212.1 59.6 211.4 58.3Q210.8 57.0 210.8 55.3L210.8 55.3Q210.8 53.6 211.4 52.4Q212.1 51.1 213.3 50.4Q214.4 49.7 216.0 49.7L216.0 49.7Q217.1 49.7 218.1 50.0Q219.0 50.4 219.7 51.0Q220.4 51.7 220.8 52.8Q221.2 53.8 221.2 55.2L221.2 55.2L221.2 56.0L212.0 56.0L212.0 54.2L218.3 54.2Q218.3 53.5 218.0 53.0Q217.8 52.5 217.3 52.2Q216.8 51.9 216.1 51.9L216.1 51.9Q215.4 51.9 214.9 52.2Q214.3 52.6 214.1 53.1Q213.8 53.6 213.7 54.3L213.7 54.3L213.7 56.0Q213.7 56.9 214.0 57.4Q214.3 58.0 214.9 58.4Q215.5 58.7 216.2 58.7L216.2 58.7Q216.7 58.7 217.1 58.5Q217.6 58.4 217.9 58.1Q218.2 57.8 218.3 57.4L218.3 57.4L221.1 57.6Q220.9 58.6 220.2 59.4Q219.6 60.1 218.6 60.5Q217.5 60.9 216.2 60.9Z "/><mask id="satori_om-id-1"><rect x="175" y="152" width="451" height="96" fill="#fff"/></mask><rect x="175" y="152" width="451" height="96" fill="black"/><path fill="white" d="M235.3 189.5L226.4 189.5L226.4 184.4L250.3 184.4L250.3 189.5L241.4 189.5L241.4 213.5L235.3 213.5L235.3 189.5ZM269.0 197.9L269.0 197.9L263.5 198.2Q263.3 197.5 262.9 196.9Q262.4 196.4 261.6 196.0Q260.9 195.7 259.8 195.7L259.8 195.7Q258.4 195.7 257.5 196.3Q256.5 196.8 256.5 197.8L256.5 197.8Q256.5 198.6 257.1 199.1Q257.7 199.7 259.3 200.0L259.3 200.0L263.2 200.8Q266.4 201.5 268.0 202.9Q269.5 204.4 269.5 206.7L269.5 206.7Q269.5 208.9 268.3 210.5Q267.0 212.1 264.8 213.0Q262.6 213.9 259.8 213.9L259.8 213.9Q255.5 213.9 252.9 212.1Q250.3 210.3 249.9 207.2L249.9 207.2L255.9 206.8Q256.1 208.2 257.2 208.9Q258.2 209.5 259.8 209.5L259.8 209.5Q261.4 209.5 262.4 208.9Q263.4 208.3 263.4 207.3L263.4 207.3Q263.4 206.5 262.7 206.0Q262.0 205.4 260.6 205.2L260.6 205.2L256.8 204.4Q253.6 203.8 252.0 202.2Q250.5 200.6 250.5 198.2L250.5 198.2Q250.5 196.1 251.6 194.5Q252.8 193.0 254.9 192.2Q256.9 191.4 259.7 191.4L259.7 191.4Q263.9 191.4 266.2 193.1Q268.6 194.9 269.0 197.9ZM287.0 204.2L287.0 204.2L287.0 191.7L293.1 191.7L293.1 213.5L287.3 213.5L287.3 209.5L287.0 209.5Q286.3 211.4 284.6 212.6Q282.9 213.8 280.4 213.8L280.4 213.8Q278.2 213.8 276.6 212.8Q274.9 211.8 274.0 209.9Q273.0 208.1 273.0 205.5L273.0 205.5L273.0 191.7L279.1 191.7L279.1 204.5Q279.1 206.4 280.1 207.5Q281.1 208.6 282.9 208.6L282.9 208.6Q283.9 208.6 284.9 208.1Q285.9 207.6 286.4 206.6Q287.0 205.6 287.0 204.2ZM303.6 213.5L297.6 213.5L297.6 191.7L303.6 191.7L303.6 213.5ZM300.6 188.8L300.6 188.8Q299.3 188.8 298.3 187.9Q297.3 187.0 297.3 185.8L297.3 185.8Q297.3 184.5 298.3 183.6Q299.3 182.7 300.6 182.7L300.6 182.7Q302.0 182.7 302.9 183.6Q303.9 184.5 303.9 185.8L303.9 185.8Q303.9 187.0 302.9 187.9Q302.0 188.8 300.6 188.8ZM328.6 221.7L322.6 221.7L322.6 210.0L322.4 210.0Q321.9 210.9 321.2 211.8Q320.4 212.7 319.2 213.2Q317.9 213.8 316.2 213.8L316.2 213.8Q313.7 213.8 311.7 212.5Q309.7 211.3 308.5 208.8Q307.3 206.2 307.3 202.6L307.3 202.6Q307.3 198.8 308.5 196.4Q309.7 193.9 311.8 192.6Q313.8 191.4 316.2 191.4L316.2 191.4Q318.0 191.4 319.2 192.0Q320.5 192.6 321.2 193.5Q322.0 194.4 322.4 195.3L322.4 195.3L322.6 195.3L322.6 191.7L328.6 191.7L328.6 221.7ZM318.1 209.0L318.1 209.0Q319.6 209.0 320.6 208.2Q321.6 207.4 322.1 206.0Q322.7 204.5 322.7 202.6L322.7 202.6Q322.7 200.6 322.1 199.2Q321.6 197.7 320.6 197.0Q319.6 196.2 318.1 196.2L318.1 196.2Q316.6 196.2 315.6 197.0Q314.6 197.8 314.0 199.2Q313.5 200.7 313.5 202.6L313.5 202.6Q313.5 204.5 314.0 205.9Q314.6 207.4 315.6 208.2Q316.6 209.0 318.1 209.0ZM342.9 222.1L342.9 222.1Q340.0 222.1 337.9 221.3Q335.8 220.5 334.6 219.1Q333.3 217.7 333.0 216.0L333.0 216.0L338.6 215.3Q338.8 215.9 339.4 216.5Q339.9 217.1 340.9 217.4Q341.8 217.8 343.1 217.8L343.1 217.8Q345.1 217.8 346.3 216.8Q347.6 215.8 347.6 213.6L347.6 213.6L347.6 209.6L347.4 209.6Q347.0 210.5 346.2 211.3Q345.4 212.1 344.1 212.7Q342.9 213.2 341.2 213.2L341.2 213.2Q338.7 213.2 336.7 212.0Q334.7 210.9 333.5 208.5Q332.3 206.1 332.3 202.5L332.3 202.5Q332.3 198.8 333.5 196.3Q334.7 193.8 336.7 192.6Q338.7 191.4 341.1 191.4L341.1 191.4Q343.0 191.4 344.2 192.0Q345.4 192.6 346.2 193.5Q347.0 194.4 347.4 195.3L347.4 195.3L347.6 195.3L347.6 191.7L353.6 191.7L353.6 213.7Q353.6 216.5 352.2 218.3Q350.9 220.2 348.5 221.2Q346.1 222.1 342.9 222.1ZM343.1 208.6L343.1 208.6Q344.5 208.6 345.6 207.9Q346.6 207.2 347.1 205.8Q347.7 204.4 347.7 202.5L347.7 202.5Q347.7 200.6 347.1 199.2Q346.6 197.7 345.6 197.0Q344.5 196.2 343.1 196.2L343.1 196.2Q341.6 196.2 340.6 197.0Q339.5 197.8 339.0 199.2Q338.5 200.6 338.5 202.5L338.5 202.5Q338.5 204.4 339.0 205.8Q339.6 207.1 340.6 207.9Q341.6 208.6 343.1 208.6ZM357.7 184.4L362.0 184.4L362.0 195.4L357.7 195.4L357.7 184.4ZM384.3 197.9L384.3 197.9L378.8 198.2Q378.6 197.5 378.2 196.9Q377.7 196.4 376.9 196.0Q376.2 195.7 375.1 195.7L375.1 195.7Q373.7 195.7 372.7 196.3Q371.8 196.8 371.8 197.8L371.8 197.8Q371.8 198.6 372.4 199.1Q373.0 199.7 374.5 200.0L374.5 200.0L378.5 200.8Q381.7 201.5 383.2 202.9Q384.8 204.4 384.8 206.7L384.8 206.7Q384.8 208.9 383.5 210.5Q382.3 212.1 380.1 213.0Q377.9 213.9 375.1 213.9L375.1 213.9Q370.8 213.9 368.2 212.1Q365.6 210.3 365.2 207.2L365.2 207.2L371.1 206.8Q371.4 208.2 372.4 208.9Q373.5 209.5 375.1 209.5L375.1 209.5Q376.7 209.5 377.7 208.9Q378.6 208.3 378.7 207.3L378.7 207.3Q378.6 206.5 378.0 206.0Q377.3 205.4 375.9 205.2L375.9 205.2L372.1 204.4Q368.9 203.8 367.3 202.2Q365.8 200.6 365.8 198.2L365.8 198.2Q365.8 196.1 366.9 194.5Q368.1 193.0 370.1 192.2Q372.2 191.4 375.0 191.4L375.0 191.4Q379.2 191.4 381.5 193.1Q383.9 194.9 384.3 197.9Z M406.5 213.5L400.3 213.5L400.3 184.4L411.8 184.4Q415.1 184.4 417.4 185.6Q419.8 186.9 421.0 189.1Q422.2 191.3 422.2 194.2L422.2 194.2Q422.2 197.1 421.0 199.4Q419.7 201.6 417.4 202.8Q415.0 204.0 411.7 204.0L411.7 204.0L404.3 204.0L404.3 199.1L410.7 199.1Q412.4 199.1 413.6 198.5Q414.7 197.9 415.3 196.8Q415.9 195.7 415.9 194.2L415.9 194.2Q415.9 192.8 415.3 191.7Q414.7 190.6 413.6 190.0Q412.4 189.4 410.6 189.4L410.6 189.4L406.5 189.4L406.5 213.5ZM435.3 213.9L435.3 213.9Q432.0 213.9 429.6 212.5Q427.2 211.1 425.9 208.5Q424.6 206.0 424.6 202.7L424.6 202.7Q424.6 199.3 425.9 196.7Q427.2 194.2 429.6 192.8Q432.0 191.4 435.3 191.4L435.3 191.4Q438.6 191.4 441.0 192.8Q443.4 194.2 444.7 196.7Q446.0 199.3 446.0 202.7L446.0 202.7Q446.0 206.0 444.7 208.5Q443.4 211.1 441.0 212.5Q438.6 213.9 435.3 213.9ZM435.3 209.2L435.3 209.2Q436.8 209.2 437.8 208.4Q438.8 207.5 439.4 206.0Q439.9 204.5 439.9 202.6L439.9 202.6Q439.9 200.7 439.4 199.2Q438.8 197.7 437.8 196.9Q436.8 196.0 435.3 196.0L435.3 196.0Q433.8 196.0 432.8 196.9Q431.7 197.7 431.2 199.2Q430.7 200.7 430.7 202.6L430.7 202.6Q430.7 204.5 431.2 206.0Q431.7 207.5 432.8 208.4Q433.8 209.2 435.3 209.2ZM455.7 213.5L449.7 213.5L449.7 191.7L455.5 191.7L455.5 195.5L455.8 195.5Q456.4 193.4 457.8 192.4Q459.2 191.3 461.0 191.3L461.0 191.3Q461.5 191.3 462.0 191.4Q462.5 191.5 462.9 191.6L462.9 191.6L462.9 196.9Q462.5 196.8 461.7 196.7Q461.0 196.6 460.3 196.6L460.3 196.6Q459.0 196.6 458.0 197.2Q456.9 197.7 456.3 198.8Q455.7 199.8 455.7 201.1L455.7 201.1L455.7 213.5ZM465.3 191.7L478.4 191.7L478.4 196.2L465.3 196.2L465.3 191.7ZM468.2 207.6L468.2 186.4L474.3 186.4L474.3 206.8Q474.3 207.6 474.5 208.1Q474.8 208.5 475.3 208.7Q475.7 208.9 476.3 208.9L476.3 208.9Q476.8 208.9 477.2 208.8Q477.6 208.7 477.8 208.7L477.8 208.7L478.8 213.2Q478.3 213.3 477.5 213.5Q476.7 213.7 475.5 213.8L475.5 213.8Q473.3 213.9 471.7 213.2Q470.0 212.5 469.1 211.1Q468.2 209.7 468.2 207.6L468.2 207.6ZM480.3 191.7L493.7 191.7L493.7 196.2L480.3 196.2L480.3 191.7ZM489.4 213.5L483.4 213.5L483.4 190.1Q483.4 187.7 484.3 186.1Q485.2 184.6 486.8 183.8Q488.5 183.0 490.5 183.0L490.5 183.0Q491.9 183.0 493.1 183.2Q494.2 183.4 494.8 183.6L494.8 183.6L493.7 188.2Q493.4 188.0 492.8 187.9Q492.3 187.8 491.8 187.8L491.8 187.8Q490.4 187.8 489.9 188.5Q489.4 189.1 489.4 190.2L489.4 190.2L489.4 213.5ZM506.2 213.9L506.2 213.9Q502.9 213.9 500.5 212.5Q498.1 211.1 496.8 208.5Q495.5 206.0 495.5 202.7L495.5 202.7Q495.5 199.3 496.8 196.7Q498.1 194.2 500.5 192.8Q502.9 191.4 506.2 191.4L506.2 191.4Q509.5 191.4 511.9 192.8Q514.3 194.2 515.6 196.7Q516.9 199.3 516.9 202.7L516.9 202.7Q516.9 206.0 515.6 208.5Q514.3 211.1 511.9 212.5Q509.5 213.9 506.2 213.9ZM506.2 209.2L506.2 209.2Q507.7 209.2 508.7 208.4Q509.8 207.5 510.3 206.0Q510.8 204.5 510.8 202.6L510.8 202.6Q510.8 200.7 510.3 199.2Q509.8 197.7 508.7 196.9Q507.7 196.0 506.2 196.0L506.2 196.0Q504.7 196.0 503.7 196.9Q502.7 197.7 502.1 199.2Q501.6 200.7 501.6 202.6L501.6 202.6Q501.6 204.5 502.1 206.0Q502.7 207.5 503.7 208.4Q504.7 209.2 506.2 209.2ZM520.6 184.4L526.6 184.4L526.6 213.5L520.6 213.5L520.6 184.4ZM537.2 213.5L531.1 213.5L531.1 191.7L537.2 191.7L537.2 213.5ZM534.2 188.8L534.2 188.8Q532.8 188.8 531.9 187.9Q530.9 187.0 530.9 185.8L530.9 185.8Q530.9 184.5 531.9 183.6Q532.8 182.7 534.2 182.7L534.2 182.7Q535.5 182.7 536.5 183.6Q537.4 184.5 537.4 185.8L537.4 185.8Q537.4 187.0 536.5 187.9Q535.5 188.8 534.2 188.8ZM551.5 213.9L551.5 213.9Q548.2 213.9 545.8 212.5Q543.4 211.1 542.1 208.5Q540.8 206.0 540.8 202.7L540.8 202.7Q540.8 199.3 542.1 196.7Q543.4 194.2 545.8 192.8Q548.2 191.4 551.5 191.4L551.5 191.4Q554.9 191.4 557.3 192.8Q559.7 194.2 561.0 196.7Q562.3 199.3 562.3 202.7L562.3 202.7Q562.3 206.0 561.0 208.5Q559.7 211.1 557.3 212.5Q554.9 213.9 551.5 213.9ZM551.6 209.2L551.6 209.2Q553.1 209.2 554.1 208.4Q555.1 207.5 555.6 206.0Q556.1 204.5 556.1 202.6L556.1 202.6Q556.1 200.7 555.6 199.2Q555.1 197.7 554.1 196.9Q553.1 196.0 551.6 196.0L551.6 196.0Q550.1 196.0 549.0 196.9Q548.0 197.7 547.5 199.2Q547.0 200.7 547.0 202.6L547.0 202.6Q547.0 204.5 547.5 206.0Q548.0 207.5 549.0 208.4Q550.1 209.2 551.6 209.2ZM569.5 213.8L569.5 213.8Q568.0 213.8 567.0 212.8Q566.0 211.8 566.0 210.4L566.0 210.4Q566.0 209.0 567.0 208.0Q568.0 207.1 569.5 207.1L569.5 207.1Q570.8 207.1 571.8 208.0Q572.9 209.0 572.9 210.4L572.9 210.4Q572.9 211.4 572.4 212.1Q571.9 212.9 571.1 213.4Q570.4 213.8 569.5 213.8Z "/></svg>